<svg xmlns="http://www.w3.org/2000/svg" width="246.961" height="46.17" viewBox="0 0 246.961 46.17">
  <g id="g3371" transform="translate(0)">
    <path id="path3356" d="M16602.34,5278.644a6.545,6.545,0,1,1,6.545,6.544,6.55,6.55,0,0,1-6.545-6.544" transform="translate(-16368.469 -5239.017)" fill="#bfbebe"/>
    <path id="path3360" d="M15788.55,5176.225q0-6.218-2.4-9.226t-7.3-3h-3.475v25.351h2.658q5.443,0,7.98-3.235t2.541-9.89m12.393-.431q0,11.328-6.09,17.458t-17.125,6.13h-14.3v-45.259h15.3q10.638,0,16.43,5.571t5.787,16.1" transform="translate(-15763.427 -5153.931)" fill="#bfbebe"/>
    <path id="path3362" d="M16040.059,5198.888h11.377V5153.44h-11.377Z" transform="translate(-15962.938 -5153.439)" fill="#bfbebe"/>
    <path id="path3366" d="M16108.322,5210.631a15.35,15.35,0,0,0,1.133,6.627,3.935,3.935,0,0,0,3.813,2.279,3.824,3.824,0,0,0,3.74-2.279,15.869,15.869,0,0,0,1.088-6.627,15.046,15.046,0,0,0-1.1-6.524,4.328,4.328,0,0,0-7.537-.018,14.737,14.737,0,0,0-1.133,6.542m21.354,0q0,8.281-4.35,12.914t-12.174,4.635q-7.509,0-11.945-4.739t-4.439-12.81q0-8.257,4.352-12.829t12.207-4.574a17.059,17.059,0,0,1,8.582,2.118,14.278,14.278,0,0,1,5.746,6.063,19.965,19.965,0,0,1,2.021,9.222" transform="translate(-16003.84 -5182.134)" fill="#bfbebe"/>
    <path id="path3370" d="M16231.038,5229.128h11.377v-33.759h-11.377Z" transform="translate(-16100.678 -5183.679)" fill="#bfbebe"/>
    <path id="path3372" d="M16231.038,5161.043h11.377v-7.608h-11.377Z" transform="translate(-16100.678 -5153.435)" fill="#bfbebe"/>
    <path id="path3376" d="M16306.572,5193.064a16.57,16.57,0,0,0,5.5-1.165v8.495a22,22,0,0,1-4.379,1.443,24.136,24.136,0,0,1-4.875.433q-5.728,0-8.264-2.876t-2.531-8.832v-13.916h-3.982v-8.727h3.982V5159.3l11.467-1.994v10.616h7.262v8.727h-7.262v13.14q0,3.278,3.082,3.278" transform="translate(-16141.789 -5156.226)" fill="#bfbebe"/>
    <path id="path3380" d="M16401.023,5193.064a16.56,16.56,0,0,0,5.5-1.165v8.495a21.97,21.97,0,0,1-4.375,1.443,24.142,24.142,0,0,1-4.877.433q-5.733,0-8.262-2.876t-2.529-8.832v-13.916h-3.99v-8.727h3.99v-8.752l11.461-1.863v10.616h7.262v8.727h-7.262v13.14q0,3.278,3.082,3.278" transform="translate(-16209.908 -5156.226)" fill="#bfbebe"/>
    <path id="path3384" d="M16489.885,5206.523a6.16,6.16,0,0,1,1.584-4.068,4.68,4.68,0,0,1,3.357-1.295,4.4,4.4,0,0,1,3.479,1.462,5.831,5.831,0,0,1,1.35,3.9h-9.771Zm16.041-9.31q-4.052-3.977-11.5-3.979-7.825,0-12.047,4.573t-4.219,13.125q0,8.28,4.553,12.767t12.791,4.484a37.283,37.283,0,0,0,6.8-.538,19.687,19.687,0,0,0,5.5-1.918l-1.746-7.608a22.5,22.5,0,0,1-9.191,1.783,7.808,7.808,0,0,1-5.2-1.608,5.849,5.849,0,0,1-2.018-4.442h20.336v-5.184q0-7.479-4.062-11.456" transform="translate(-16278.905 -5182.139)" fill="#bfbebe"/>
    <path id="path3388" d="M15921.838,5206.523a6.179,6.179,0,0,1,1.582-4.068,4.687,4.687,0,0,1,3.363-1.295,4.4,4.4,0,0,1,3.475,1.462,5.874,5.874,0,0,1,1.355,3.9h-9.775Zm16.045-9.31q-4.058-3.977-11.506-3.979-7.831,0-12.045,4.573t-4.221,13.125q0,8.28,4.557,12.767t12.787,4.484a37.306,37.306,0,0,0,6.807-.538,19.7,19.7,0,0,0,5.494-1.918l-1.748-7.608a22.46,22.46,0,0,1-9.189,1.783,7.79,7.79,0,0,1-5.191-1.608,5.834,5.834,0,0,1-2.023-4.442h20.336v-5.184q0-7.479-4.057-11.456" transform="translate(-15869.22 -5182.139)" fill="#bfbebe"/>
  </g>
</svg>
