<svg id="Capa_1" data-name="Capa 1" xmlns="http://www.w3.org/2000/svg" viewBox="0 0 841.89 595.28"><defs><style>.cls-1{fill:#bfbfbf;}.cls-1,.cls-2{fill-rule:evenodd;}.cls-2{fill:#fff;}</style></defs><title>ibis</title><path class="cls-1" d="M233.28,101.64c4.76-.73,8.77,1.82,13.2,3.12,10.2,3,21.39,5.22,32.16,7.44,14.4,3,29.42,6,44.64,8.16,59.59,8.67,138.45,8.78,198.24-.24,14.42-2.17,29.76-5.38,44.4-8.4,9.91-2,21.68-4.57,31.92-7.68,3.77-1.14,7.5-2.91,10.56-2.64a10,10,0,0,1,9.12,9.84c.08,2.88-1.83,6.8-2.88,10.32-3,10-5.5,21.64-7.68,31.92-3.11,14.7-5.94,30.14-8.16,44.4-9.17,58.93-8.77,138-.24,197.52a641.44,641.44,0,0,0,13,66.24c.87,3.47,1.63,7.1,2.64,10.56s2.51,6.52,3.12,9.84a10,10,0,0,1-10.08,12c-2.84,0-6.77-1.81-10.32-2.88-10-3-21.54-5.52-31.92-7.68-14.35-3-29.64-6-44.4-8.16-58.53-8.67-138.09-9.2-197.52-.24-22.92,3.46-44.82,7.63-66,13-3.41.86-7,1.6-10.56,2.64-5.46,1.59-13,5.46-18.24,1a9.35,9.35,0,0,1-3.36-7.2c-.13-3.45,1.55-7.09,2.64-10.8,2.93-10,5.46-21.13,7.68-31.92,6.14-29.81,11.5-58.65,13.44-92.16,2.88-49.71,1.75-106.06-5-150.72a671.58,671.58,0,0,0-13.2-66c-.84-3.3-1.58-7-2.64-10.56-1.2-4-3.65-7.88-2.88-12.48A9.75,9.75,0,0,1,233.28,101.64Z"/><path class="cls-2" d="M307.2,212.28H294.48c-.28,0-.26.38-.24.72,1.35,6.25-2.49,18.31,1.68,21.84,2.29,1.94,7.24,1.2,11.28,1.2h12.72c-1.29-6.66,2.42-18.44-1.68-22.32C316.06,211.65,311.25,212.28,307.2,212.28Z"/><path class="cls-2" d="M390.48,247.8c-10.5.08-18.84,5-24.48,9.84-.13.11-.51,1.27-1,.48v-23c0-5.85,1.36-18.48-1.68-21.36-2.23-2.11-7.07-1.44-11-1.44H339.6c-.28,0-.26.38-.24.72V330.12c0,5.12-.92,13.11,1,15.84,1.61,2.34,6,3.07,9.12,3.84a109.47,109.47,0,0,0,35.76,2.64c31.9-3.38,44.23-26.63,41.76-62.4C425.28,265.63,415.91,247.61,390.48,247.8Zm1.68,81.36c-6.38,5.51-16.86,5.83-27.12,2.64V285.48c0-2.19-.4-4.82,0-6.48.34-1.41,2.71-3.35,4.56-4.8,4.5-3.53,13.71-7.8,20.88-3.6,7.41,4.34,9.27,16.34,9.84,28.56C400.86,310.78,398.68,323.53,392.16,329.16Z"/><path class="cls-2" d="M454.32,212.28H441.84c-.28,0-.26.38-.24.72,1.24,6.7-2.61,19.29,2.4,22.32,2.54,1.54,7.21.72,11.28.72h12c-1.35-6.58,2.59-19-1.92-22.56C463,211.62,458.41,212.28,454.32,212.28Z"/><path class="cls-2" d="M518.64,286.92c-4.95-2.26-11.27-5-11.52-9.84-.42-8.05,9.26-8.79,17.52-8.16a111.92,111.92,0,0,1,20.4,3.6c-.82-7.63,1.78-14.11-1.68-18-2.27-2.55-9.14-3.41-13-4.08-19.74-3.48-37.65,1.07-44.64,13-4.77,8.11-5,23.39,1.44,32.16,4.13,5.59,11.88,10,19.44,13.44,6.91,3.15,18.15,6.88,18.48,14.64.41,9.73-11.29,10.42-20.88,9.6a159,159,0,0,1-21.12-3.6c.52,6.69-1.39,14.74,1.92,18.24,1.33,1.41,4,2,6.48,2.64,12.73,3.17,30.48,3.28,40.56-1,9.64-4.05,17.37-12.07,18.24-24.24C552.07,300.9,534.44,294.12,518.64,286.92Z"/><path class="cls-2" d="M307.2,250.44H294.48c-.28,0-.26.38-.24.72v88.08c0,4.3-.29,9.37,1.68,11,2.26,1.91,7.36,1.2,11.28,1.2h12.72V262.92c0-4.46.2-9.26-1.68-11C316.12,249.87,311.12,250.44,307.2,250.44Z"/><path class="cls-2" d="M454.8,250.44h-13c-.28,0-.26.38-.24.72V340c0,4.46-.2,8.88,2.16,10.56s7.46,1,11.28,1h12.24V263.4c0-4.18.25-9.5-1.44-11.28C463.7,249.87,458.85,250.44,454.8,250.44Z"/><path class="cls-2" d="M403.44,404.52A11.34,11.34,0,0,0,397,404a8.21,8.21,0,0,0-3.84,1.2c-4,2.82-5.05,13.64-1.68,18,2.22,2.86,8.44,3.68,11.76,2.16C410.48,422.07,409.5,407.37,403.44,404.52ZM400.56,422c-7.53,3-8.25-12.56-3.12-14.16C405,405.54,404.51,420.45,400.56,422Z"/><path class="cls-2" d="M475.44,415.8c-.86-1.26-2.72-2-4.56-2.88-1.29-.6-4.52-1.35-3.84-3.84s6.25-1.08,8.16-.48c0-1.24.15-2.71-.24-3.6-4.26-1.58-9.87-1.26-11.76,1.44a6.8,6.8,0,0,0,.24,7.44c2.18,2.82,8.44,2.69,8.4,6,0,3.81-6.21,2.12-9.36,1.68v2.88c4,2.42,10.72,2.05,13-1.2A7.2,7.2,0,0,0,475.44,415.8Z"/><path class="cls-2" d="M385.92,404.52c-1.16-.44-3-.16-4.56-.24-.16,2.72.32,6.08-.24,8.4h-7.68c-.13-2.67.28-5.88-.24-8.16-1.16-.44-3-.16-4.56-.24v11c0,3.53-.37,7.18.48,10.08,1,.51,2.92.12,4.32.24.16-3-.32-6.72.24-9.36h7.68c.11,3-.26,6.5.24,9.12,1.16.44,3,.16,4.56.24C386,418.67,386.47,411.09,385.92,404.52Z"/><path class="cls-2" d="M425.76,404.28c-5.1.28-12.85-.59-16.32.48-.48.72-.14,2.26-.24,3.36h6v17c.89.79,3,.38,4.56.48.16-5.76-.32-12.16.24-17.52,1.82-.1,4.08.24,5.52-.24C426,407.09,425.65,405.45,425.76,404.28Z"/><path class="cls-2" d="M433.2,416.28h8.16c.67-.69.45-2.27.48-3.6H433.2c.16-1.44-.32-3.52.24-4.56,2.91-.13,6.36.28,8.88-.24.56-.8.51-2.21.48-3.6H428.64c.47,4.55-.62,12.53,0,16.8.88,6.09,9,5.38,14.64,3.84a10.43,10.43,0,0,0,.24-3.36C438.81,422.54,431.5,423.6,433.2,416.28Z"/><path class="cls-2" d="M452.16,421.56c-2.91-2.51.41-13.61-1.2-17-1.09-.43-2.87-.17-4.32-.24.77,6-1.6,17.12,1.44,20.16,2.32,2.32,8.22,1.65,11.76.48a10.43,10.43,0,0,0,.24-3.36C457.22,421.73,454,423.18,452.16,421.56Z"/></svg>