<svg xmlns="http://www.w3.org/2000/svg" xmlns:xlink="http://www.w3.org/1999/xlink" width="109.115" height="43.398" viewBox="0 0 109.115 43.398">
  <defs>
    <clipPath id="clip-path">
      <path id="Union_1" data-name="Union 1" d="M93.814,43.4V18.706L84.957,43.394l-.183,0L75.754,18.706V43.4H60.619V34.524h5.937V8.983h-6.1V.108H77.676L84.828,19.9,91.891.108h17.058V8.983h-5.938V34.524h6.1V43.4Zm-69.565,0V34.524h6.1V8.983h-6.1V.108h23.08A11.564,11.564,0,0,1,54.515,3.07l2.43,2.8c.688.678,1.083,2.958,1.083,2.958l.251,2.8a10.02,10.02,0,0,1-.584,2.966l-1.257,2.8a10.019,10.019,0,0,1-2.592,2.962v2.8a10.02,10.02,0,0,1,2.592,2.962l1.257,2.8a10.02,10.02,0,0,1,.584,2.966l-.251,2.8s-.395,2.28-1.083,2.958l-2.43,2.8A11.565,11.565,0,0,1,47.329,43.4Zm15.3-8.874H48.5V26.3H39.55Zm0-17.316H48.5V8.983H39.55ZM.166,43.4V34.524H6.1V8.983H0V0H21.239V8.983H15.3V34.524h6.1V43.4Z" transform="translate(0 -1)" fill="none" stroke="#bfbebe" stroke-width="3"/>
    </clipPath>
  </defs>
  <g id="ibm" transform="translate(0 1)" clip-path="url(#clip-path)">
    <path id="Path_7" data-name="Path 7" d="M0,13.683H112.215v5.8H0m0,5.8H106.223v5.8H0v5.8H106.223v5.8H0m0,5.8H112.215v5.8H0" transform="translate(0 -13.083)" fill="none" stroke="#bfbebe" stroke-width="3"/>
  </g>
</svg>
