<svg xmlns="http://www.w3.org/2000/svg" width="177.274" height="45" viewBox="0 0 177.274 45">
  <g id="Group_30" data-name="Group 30" transform="translate(-159 -1260)">
    <g id="Group_29" data-name="Group 29">
      <g id="Group_28" data-name="Group 28">
        <g id="Group_27" data-name="Group 27">
          <path id="path13" d="M10.232,14.687a3.875,3.875,0,0,1,2.836.858c.645.644.933,1.708.933,3.45V40.749c0,3.01-.632,4.353-4.359,4.353H9.132v1.335h16.75V45.108l-.505-.007c-3.692-.044-4.314-1.379-4.314-4.353V18.994c0-1.736.288-2.8.932-3.439a3.935,3.935,0,0,1,2.885-.869h1V13.332H9.132v1.354h1.1Z" transform="translate(149.865 1257.772)" fill="#bfbebe" fill-rule="evenodd"/>
          <path id="path15" d="M63.8,35.339a18.646,18.646,0,0,1-.333-2.118V23.285c-.065-5.794.726-8.678-4.344-8.656v-1.3H70.789v1.3c-5.221-.021-4.564,2.863-4.594,8.656v23.2l-1.66-.018L39.35,20.133a19.219,19.219,0,0,1,.325,2.117V38.521c-.143,5.936.593,6.653,4.419,6.583V46.46H31.937V45.1c3.832,0,4.585-.505,4.581-7.067V22.394l-.031-2.545c.143-3.294-1.075-5.205-4.792-5.174v-1.3H42.888Z" transform="translate(149.865 1257.772)" fill="#bfbebe" fill-rule="evenodd"/>
          <path id="path17" d="M106.021,12.694h-1.285l-.06.44c-.087.656-.346,1.756-1.095,1.756a3.851,3.851,0,0,1-1.345-.375,23.673,23.673,0,0,0-8.817-1.821A19.685,19.685,0,0,0,79.3,18.266,17.623,17.623,0,0,0,74.235,30.92a14.861,14.861,0,0,0,5.6,11.705c3.775,3.227,8,4.6,14.15,4.6a22.862,22.862,0,0,0,12.548-3.147l.787-.427V34.973c0-3.7.453-4.276,3.466-4.4l.49-.019v-1.29H96.559v1.29l.49.019c3.356.13,3.989.732,3.989,3.791v8.044a11.092,11.092,0,0,1-6.581,2.264,12.1,12.1,0,0,1-8.689-3.607c-2.7-2.7-4.02-6.637-4.02-11.084,0-4.791,1.276-8.877,3.906-11.5A11.149,11.149,0,0,1,93.7,15.227a14.419,14.419,0,0,1,8.382,3,9.838,9.838,0,0,1,3.507,5.356l.109.364h1.256Z" transform="translate(149.865 1257.772)" fill="#bfbebe" fill-rule="evenodd"/>
          <path id="path21" d="M170.486,46.347a4.05,4.05,0,0,0,2.339-.7,10.742,10.742,0,0,0,7.741-1.78,16.176,16.176,0,0,0,3.012-3.164,11.383,11.383,0,0,0,1.689-3.144,14.61,14.61,0,0,0,.668-2.212,21.025,21.025,0,0,0-.794-11,19.52,19.52,0,0,0-.723-1.831c-1.458-3.01-3.442-6.258-6.5-8.162A13.043,13.043,0,0,1,173.644,9.9c-.529-.475-1.035-1.105-1.719-1.219a2.638,2.638,0,0,1,.443.97l-.04.051a2.517,2.517,0,0,1-1.791-.827l.547-.5a2.931,2.931,0,0,0-.672-.2c-2.089-.238-3.808.726-5.661,1.19l-.029.1c1.138.506,1.376,1.759,2.038,2.607.164-.2.443-.053.672-.071.331.019.641.257.962.174a3.042,3.042,0,0,0-.2-.744,1.385,1.385,0,0,1,.653,0c.6.35,1.561-.062,1.934.744a11.251,11.251,0,0,0-1.966.343c.042.259.3.464.28.724a6.491,6.491,0,0,0-1.74-.443l-.031.092a5.987,5.987,0,0,0,2.93,1.768c1.564.361,2.94-.382,4.449-.124A17.322,17.322,0,0,1,182.96,23.8c.067.177.133.356.194.538a17.9,17.9,0,0,1,.217,11,13.484,13.484,0,0,1-2.377,4.021,8.233,8.233,0,0,1-1.357,1.335,6.094,6.094,0,0,1-5.445,1.2c-.124-.085-.373-.106-.331-.322.069-.288.133-.58.189-.88a21.8,21.8,0,0,0,.39-5.217l-.007-.227a19.952,19.952,0,0,0-1.565-7.095,24.691,24.691,0,0,0-2.231-3.91,9.261,9.261,0,0,0-4.146-3.411,3.107,3.107,0,0,0-3.156.546,2.127,2.127,0,0,0-.724,1.905,6.515,6.515,0,0,1-2.981.96,8.173,8.173,0,0,1-.817.118,4.582,4.582,0,0,1-.772-.03,7.655,7.655,0,0,1-3.644-1.675c-.021-.538-.052-1.044-.073-1.613a1.945,1.945,0,0,1-1.1-1.542l.051-.051a4.39,4.39,0,0,1,.921.443,6.839,6.839,0,0,0-.692-2.306c-.374-.156-.747-.28-1.1-.466a1.764,1.764,0,0,1-.723-1.2c.362.351.992.228,1.272.6-.488-1.438-.5-3.082-1.294-4.4-.4-.971-1.46-1.417-2.184-2.13-.28-.343-.393-.818-.9-.871-.415-.1-.446-.567-.518-.869.258.031.474.207.691.248-.6-1.59-1.128-3.361-2.752-4.374l-.279.177a17.587,17.587,0,0,1-1.935.156,2.667,2.667,0,0,1,1.169-.778,2.782,2.782,0,0,0-1.4-.515,2.9,2.9,0,0,1-1.354.589l-.053-.042c-.011-.372-.1-.827.466-.921a3.247,3.247,0,0,0-1.98,0c-.154.4-.6.766-.566,1.243a8.477,8.477,0,0,1-.88,1.013,9.548,9.548,0,0,1,.474-2.2c-.466.176-.939.424-1.4.641a19.123,19.123,0,0,0-2.294-1.169c-.071-.031-.228-.061-.2.073.674.485.413,1.4.484,2.088l-.425-.35c-.207-.527-.8-.91-.907-1.489a7.889,7.889,0,0,0-1.807.6l-.09.052a1.455,1.455,0,0,1,1.137.766,13.357,13.357,0,0,1-2.111-.323c-.072-.071-.135-.156-.249-.145a3.928,3.928,0,0,0-.992.641,6.951,6.951,0,0,0-1.781,2.411,1.562,1.562,0,0,1,.714.175c-.393.238-.734.642-1.117.869a9.529,9.529,0,0,0-.146,1.738,7.653,7.653,0,0,0-.9,1.367,20.259,20.259,0,0,0-.714,6.741c-.208.2-.478.323-.672.477l.021,2.109h.051c.093-.443.622-.691.942-.991h.1c-.052.475-.114.951-.124,1.438l-.6.5c-.6.528-.094,1.324-.145,1.987.042.174.071.433.2.475a2.823,2.823,0,0,1,.446-.673c.258-.061.486-.27.723-.3a11.182,11.182,0,0,1-.518,1.52,1.755,1.755,0,0,0-.315.259.752.752,0,0,0-.213.382A47.088,47.088,0,0,0,128.81,31.9c-.567.963-.89,2.1-1.364,3.089-.069.138-.129.281-.186.424-.476,1.2-.62,2.547-1.212,3.7a4.361,4.361,0,0,0-.765-.4,3.116,3.116,0,0,0-3.229.725,2.766,2.766,0,0,0-2.041.372,2.7,2.7,0,0,0-.9,1.105,2.241,2.241,0,0,0-.161.985,2.38,2.38,0,0,0-.868,1.313,4.084,4.084,0,0,0,.817,3.139h51.59Z" transform="translate(149.865 1257.772)" fill="#fff" fill-rule="evenodd"/>
          <path id="path23" d="M163.635,23.092c-.011.269-.207.57-.031.8.249-.28.664-.27.994-.392a8.16,8.16,0,0,1,2.659.414c-.216-.343-.362-.723-.6-1.034-.478-.124-1.2.207-1.283-.5-.291-.249-.748-.071-1.045-.053a2.347,2.347,0,0,0-.695.765Z" transform="translate(149.865 1257.772)" fill="#fff" fill-rule="evenodd"/>
          <path id="path25" d="M132,14.163a.041.041,0,0,0-.015-.01.023.023,0,0,0,0,.01Z" transform="translate(149.865 1257.772)" fill="#fff" fill-rule="evenodd"/>
          <path id="path27" d="M135.764,23.355l.622-.6a.137.137,0,0,1,.124.053l-.052,1.147a1.615,1.615,0,0,0,1.065.393c.032-.311.27-.527.4-.8.114-.217.042-.538.269-.694l.071.073a3.408,3.408,0,0,0,.23,1.023c.021.165.051.372.071.517a2.583,2.583,0,0,0,1.221-.269,4.708,4.708,0,0,1,.175-1.076c.1-.125-.114-.351.146-.34.145.309.4.63.549.96a4.048,4.048,0,0,0,.993-2.232c-.175-.24-.445-.24-.653-.393a7.788,7.788,0,0,0-5.715.2,2.656,2.656,0,0,0,.48,2.038Z" transform="translate(149.865 1257.772)" fill="#fff" fill-rule="evenodd"/>
          <path id="path29" d="M119.316,42.763a16.046,16.046,0,0,0,.05,2.331,1.2,1.2,0,0,0,.765.58l.054-.528c.123-.736-.27-1.516.145-2.136a5.084,5.084,0,0,1,.828.372,1.811,1.811,0,0,0-.7-1.892l-1.138,1.273Z" transform="translate(149.865 1257.772)" fill="#fff" fill-rule="evenodd"/>
          <path id="path31" d="M121.871,41.648a6.073,6.073,0,0,0-.216,3.975,4.513,4.513,0,0,0,.815-.62,4.305,4.305,0,0,1,.394-2.819A1.832,1.832,0,0,1,123.91,43.3a1.914,1.914,0,0,0,.322-1.616c.021-.453-.5-.349-.747-.537.084-.382.072-.826.477-1.042l-1.242.124A5.88,5.88,0,0,0,121.871,41.648Z" transform="translate(149.865 1257.772)" fill="#fff" fill-rule="evenodd"/>
          <path id="path33" d="M124.428,45.219c.053.1,0,.259.1.28.156-.868.859-1.431,1.243-2.2.185-.259.174-.621.474-.818.4,0,.695.291,1.088.322.124.093-.064.175-.073.277a10.238,10.238,0,0,0-.3,2.011h.071a10.464,10.464,0,0,0,1.325-1.867l.071-.588c.093-.7-.672-1.158-1.169-1.448l.445-.569-.62-.218a2.829,2.829,0,0,0-1.885.943,8.425,8.425,0,0,0-.774,3.87Z" transform="translate(149.865 1257.772)" fill="#fff" fill-rule="evenodd"/>
          <path id="path35" d="M127.213,39.081c.238.073.455-.124.691-.02a6.252,6.252,0,0,1,2.661,1.51l.849,2.16.425-1.333-.28-.725c-.238-.517-.89-.475-1.336-.5-.185-.207.011-.445.074-.641.216-.734-.685-.694-1.046-.991.022-.445-.518-.291-.818-.333l-.1-.124a.212.212,0,0,0-.3-.021c-.022-.03-.062-.051-.04-.1l-.23.053a1.464,1.464,0,0,0-.547,1.064Z" transform="translate(149.865 1257.772)" fill="#fff" fill-rule="evenodd"/>
          <path id="path37" d="M127.813,36.7a.656.656,0,0,0,.217.35c.467-.124.91-.443,1.449-.249a8.214,8.214,0,0,0,2.258,1.584l.3-.053c.187.064.393.073.518.28.115.28-.174.445-.269.672.467.341.28.953.571,1.365l.745-.992c-.175-.435.01-1.179-.674-1.22a.654.654,0,0,1-.373-.6c-.443-.4-.992-.578-1.439-.991-.362-.291-.578-.736-1.045-.839a3.865,3.865,0,0,0-1.043-.35c-.7-.1-.758.723-1.214,1.045Z" transform="translate(149.865 1257.772)" fill="#fff" fill-rule="evenodd"/>
          <path id="path39" d="M128.806,34.666l.125.2c.516-.032.984-.259,1.492-.249.341.208.786.2,1.137.372a4,4,0,0,0,.992,1.076c.841.123,1.305,1.023,1.595,1.684v-.32a2.209,2.209,0,0,0-.177-1.364c-.207-.208-.507-.344-.723-.529a.424.424,0,0,1,.031-.32,6.789,6.789,0,0,0-1.19-.8c-.549-.8-1.6-.579-2.443-.8l-.838,1.045Z" transform="translate(149.865 1257.772)" fill="#fff" fill-rule="evenodd"/>
          <path id="path41" d="M128.789,27.079c.092.322.2.725.265,1.065.29-.641.862-.928,1.368-1.457a2.609,2.609,0,0,0-.972-.353v-.019C129.223,26.543,128.871,26.77,128.789,27.079Z" transform="translate(149.865 1257.772)" fill="#fff" fill-rule="evenodd"/>
          <path id="path43" d="M130.669,30.481l.466-.475a2.935,2.935,0,0,0,.921-1.634,1.327,1.327,0,0,0-1.086.051A13.02,13.02,0,0,0,130.669,30.481Z" transform="translate(149.865 1257.772)" fill="#fff" fill-rule="evenodd"/>
          <path id="path45" d="M131.01,31.94A3.02,3.02,0,0,0,133,31.724l.578-1.863a1.4,1.4,0,0,0-.547-.031A4.523,4.523,0,0,1,131.01,31.94Z" transform="translate(149.865 1257.772)" fill="#fff" fill-rule="evenodd"/>
          <path id="path47" d="M131.22,25.341a4.139,4.139,0,0,0,2.039,1.664c-.093-.868-.837-1.469-1.221-2.212l-.022-.249a3.866,3.866,0,0,0-.973-.642,4.868,4.868,0,0,0,.177,1.439Z" transform="translate(149.865 1257.772)" fill="#fff" fill-rule="evenodd"/>
          <path id="path49" d="M133.744,32.023a3.618,3.618,0,0,0,1.645-.157c.737-.174,1.14-.981,1.388-1.611h-.921l-.994.971a7.816,7.816,0,0,0-1.117.8Z" transform="translate(149.865 1257.772)" fill="#fff" fill-rule="evenodd"/>
          <path id="path51" d="M133.632,24.4a6.024,6.024,0,0,0,.963,2.235l.124-1.542-1.087-.693Z" transform="translate(149.865 1257.772)" fill="#fff" fill-rule="evenodd"/>
          <path id="path53" d="M137.025,28.423a7.69,7.69,0,0,0-.213-1.643c-.312-.208-.748-.187-1.067-.392a3.033,3.033,0,0,0,1.281,2.036Z" transform="translate(149.865 1257.772)" fill="#fff" fill-rule="evenodd"/>
          <path id="path55" d="M136.083,33.679a10.252,10.252,0,0,0,1.882-.767c.383-.546.963-1.045,1.045-1.685-.476.134-.89-.02-1.334.2a3.408,3.408,0,0,1-.952,1.385c-.082.35-.466.59-.641.87Z" transform="translate(149.865 1257.772)" fill="#fff" fill-rule="evenodd"/>
          <path id="path57" d="M137.1,34.951l.776,1.012a1.573,1.573,0,0,0,1.294-.145l-.28-.921a3.6,3.6,0,0,1-1.791.053Z" transform="translate(149.865 1257.772)" fill="#fff" fill-rule="evenodd"/>
          <path id="path59" d="M138.391,27.627l.3,1.366a2.753,2.753,0,0,0,.853-2.358,3.235,3.235,0,0,1-1.152.992Z" transform="translate(149.865 1257.772)" fill="#fff" fill-rule="evenodd"/>
          <path id="path61" d="M140.429,30.038a.992.992,0,0,0,.177.538c.806.288.889,1.271,1.636,1.643a1.854,1.854,0,0,0,1.469-.249c-.321-.361-.685-.612-.993-.993-.218-.093-.436-.228-.425-.5l-1.864-.443Z" transform="translate(149.865 1257.772)" fill="#fff" fill-rule="evenodd"/>
          <path id="path63" d="M141.071,34.919a2.4,2.4,0,0,0,1.325.723c-.082-.114.053,0,.073-.072l-.623-1.363c-.31.008-.63.071-.92.051a2.819,2.819,0,0,0,.145.661Z" transform="translate(149.865 1257.772)" fill="#fff" fill-rule="evenodd"/>
          <path id="path65" d="M142.169,28.547a7.975,7.975,0,0,1-.494-2.232c-.311.371-.632.61-.921.991-.135.766.959.954,1.416,1.241Z" transform="translate(149.865 1257.772)" fill="#fff" fill-rule="evenodd"/>
          <path id="path67" d="M143.431,27.845c.373.485,1.19.319,1.648.175-.219-.372-.92-.589-1.044-.992a8.912,8.912,0,0,0-.446-2.058C143.226,25.849,142.79,26.894,143.431,27.845Z" transform="translate(149.865 1257.772)" fill="#fff" fill-rule="evenodd"/>
          <path id="path69" d="M144.082,30.038c1.036.756,2.049,1.633,3.5,1.313.1-.073.28-.063.3-.2-.426-.27-.879-.476-1.315-.723l-.5-.725h-.228a9.078,9.078,0,0,1-1.761.332Z" transform="translate(149.865 1257.772)" fill="#fff" fill-rule="evenodd"/>
          <path id="path71" d="M144.1,38.426h.071a5.588,5.588,0,0,1,2.091-.87c.2.072.073.29.249.374.446-.187.984-.145,1.439-.3a3.128,3.128,0,0,1,1.439.27c.351.464,1.014.414,1.471.723l-.073-.723c-.962-1.128-2.464-1.211-3.849-1.189l-.032-.146a2.467,2.467,0,0,0-1.013.219,5.253,5.253,0,0,0-1.3.371,11.641,11.641,0,0,0-.5,1.272Z" transform="translate(149.865 1257.772)" fill="#fff" fill-rule="evenodd"/>
          <path id="path73" d="M144.935,25.715a1.75,1.75,0,0,0,1.687.8,1.963,1.963,0,0,1-.776-1.19c.1-.921-.91-.992-1.407-1.47a6.219,6.219,0,0,0,.5,1.863Z" transform="translate(149.865 1257.772)" fill="#fff" fill-rule="evenodd"/>
          <path id="path75" d="M144.83,40.257h.121c.55-.344,1.347-.084,1.886-.446.3-.156.32.259.529.372.507.311.568,1.24,1.283,1.024.858.444.641,1.491.672,2.256l.8-.5c-.073-.4.154-.892-.105-1.242-.2-.443-.733-.485-.992-.848.311-.528-.393-.775-.539-1.158l.042-.053,1.095.145a1.641,1.641,0,0,1,.623,1.024c.859.145,1.066,1.116,1.367,1.737.176-.424.248-.88.425-1.292.01-.343-.446-.343-.672-.5a1.855,1.855,0,0,0-.765-1.345,11.4,11.4,0,0,0-2.836-.766l-.87.27c-.477.114-.983-.031-1.345.3-.541.041-.582.632-.714,1.016Z" transform="translate(149.865 1257.772)" fill="#fff" fill-rule="evenodd"/>
          <path id="path77" d="M145.376,35.995l.2.093c.422-.2.848-.424,1.294-.59.692-.2,1.231.59,1.812.094.217-.156.4.072.568.2.249.455.828.424,1.263.548-.217-.589-.486-1.4-1.242-1.492a7.221,7.221,0,0,1-.942-.3c-.8-.879-1.314.723-2.184.33a2.427,2.427,0,0,0-.766,1.118Z" transform="translate(149.865 1257.772)" fill="#fff" fill-rule="evenodd"/>
          <path id="path79" d="M145.574,41.032c.331.277.671.755,1.188.692.645.3.375,1.147.727,1.592l.372-.332-.031-.02.053-.052.022.031a1.975,1.975,0,0,0-.219-1.221c-.238-.164-.518.011-.744-.145a1.048,1.048,0,0,0-.477-.7c-.166-.124-.384.042-.57.031l-.321.126Z" transform="translate(149.865 1257.772)" fill="#fff" fill-rule="evenodd"/>
          <path id="path81" d="M146.868,28.423a5.336,5.336,0,0,0,1.532,1.314,2.461,2.461,0,0,0,1.47.145,9.431,9.431,0,0,1-1.221-1.211c-.145-.207-.177-.464-.373-.651a2.92,2.92,0,0,0-1.408.4Z" transform="translate(149.865 1257.772)" fill="#fff" fill-rule="evenodd"/>
          <path id="path83" d="M147.439,24.722c.478.588,1.212.351,1.885.371v-.071l-1.035-.871a2.78,2.78,0,0,0-.849.57Z" transform="translate(149.865 1257.772)" fill="#fff" fill-rule="evenodd"/>
          <path id="path85" d="M128.385,14.969l.6,1.862c-.011-1.055.476-1.934.373-3.009l.446-.663-.943.29A3.511,3.511,0,0,0,128.385,14.969Z" transform="translate(149.865 1257.772)" fill="#fff" fill-rule="evenodd"/>
          <path id="path87" d="M128.789,11.742l.816-.476v-1.21a4.307,4.307,0,0,0-.8.839Z" transform="translate(149.865 1257.772)" fill="#fff" fill-rule="evenodd"/>
          <path id="path89" d="M145.577,13.625a1.152,1.152,0,0,1-.744.372,3.534,3.534,0,0,0,.3-2.8,3.972,3.972,0,0,0,.695-.248l-.022-.02.571-.5c.755-.517.466-1.5.745-2.232-.373-.58-.486-1.283-1.025-1.77l.032-.019c-.426-.538-1.191-.477-1.773-.746-.765-.259-1.355.269-1.9.622-.238.04-.093.35-.352.34a10.551,10.551,0,0,0-.425,1.22,4.143,4.143,0,0,0-2.95.548,4.35,4.35,0,0,0-1.471-.527c-.372-.072-.8.063-1.064-.146-.393-.443-.478-1.251-1.151-1.364-.237-.083-.288-.34-.288-.569-.446-.072-.841-.277-1.275-.372-.66-.3-1.188.177-1.686.5a5.053,5.053,0,0,0-.671.25,9.469,9.469,0,0,0-.963,1.808,3.757,3.757,0,0,0,.571,1.438,2.924,2.924,0,0,0,1.614,1.47,6.091,6.091,0,0,0,0,3.279s-.018.012-.018.01a.384.384,0,0,1-.033.029.56.56,0,0,1-.286-.029h-.013a4.509,4.509,0,0,0,1.363,2.594c.27.1.208.414.323.622a.487.487,0,0,1,.05.371,8.123,8.123,0,0,0-4.346,1.085c-.331.166-.185.622-.216.942a7.973,7.973,0,0,1,2.979-1.24,4.5,4.5,0,0,1,1.439-.021l.052.89A13.129,13.129,0,0,0,130,21.473a4.165,4.165,0,0,0,.053.963l.942-.767A11.206,11.206,0,0,1,133.9,20a3.631,3.631,0,0,0,.943.889A7.024,7.024,0,0,1,136.884,20c.384-.228.992-.021,1.241-.475l.177-.942c-.032-.021-.051-.061-.1-.05a1.425,1.425,0,0,1-.765-1.335,1.391,1.391,0,0,1-.549.145c-.166-.042-.32-.082-.393-.249-.011-.208-.115-.517.092-.672a4,4,0,0,1,2.392-.371c.63.082,1.543.05,1.758.8-.029.217-.01.454-.227.6-.228.124-.486-.011-.695-.1a1.708,1.708,0,0,1-1.014,1.24l.074.6c.071.27.092.713.518.62A9.075,9.075,0,0,1,142.1,21.1a6.455,6.455,0,0,0,.723-.921,13.526,13.526,0,0,1,4.12,2.73l.053-.869a14.168,14.168,0,0,0-3.924-2.41,5.27,5.27,0,0,0,.124-.848,10.143,10.143,0,0,1,4.565,1.4l-.022-.745a10.15,10.15,0,0,0-4.7-1.293.521.521,0,0,1-.071-.322,2.305,2.305,0,0,0,1.616-1.738c.422-.485,1.035-1.013.89-1.736.019-.059.04-.123.061-.185A.862.862,0,0,0,145.577,13.625Z" transform="translate(149.865 1257.772)" fill="#fff" fill-rule="evenodd"/>
          <path id="path91" d="M147.017,16.283l.848-.27.092-.475c.24-.693-.267-1.21-.518-1.759l-.422,2.5Z" transform="translate(149.865 1257.772)" fill="#fff" fill-rule="evenodd"/>
          <path id="path93" d="M149.157,19.562c.4.443.8,1.158,1.513.939a4.518,4.518,0,0,0-.322-.816c-.188-.219-.249-.839-.622-.62-.28-.187-.351-.5-.529-.746A7.4,7.4,0,0,0,149.157,19.562Z" transform="translate(149.865 1257.772)" fill="#fff" fill-rule="evenodd"/>
          <path id="path95" d="M149.3,22.59c.156.219.2.5.351.694a1.671,1.671,0,0,0,1.035.124c.311-.072.508.269.8.071-.361-.227-.577-.641-.921-.939-.4-.32-.837-.041-1.262.051Z" transform="translate(149.865 1257.772)" fill="#fff" fill-rule="evenodd"/>
          <path id="path97" d="M149.851,27.4a3.988,3.988,0,0,0,2.575.694c.1-.053.28-.042.3-.167a15.806,15.806,0,0,0-1.828-.921c-.343-.527-.787.135-1.222.093C149.685,27.224,149.809,27.318,149.851,27.4Z" transform="translate(149.865 1257.772)" fill="#fff" fill-rule="evenodd"/>
          <path id="path99" d="M152,36.532l.156.333c.156,1.076.837,2.068.465,3.247.311.217.4.578.6.868h.052a6.925,6.925,0,0,0-.052-2.731c.093-.817-.735-1.293-1.221-1.716Z" transform="translate(149.865 1257.772)" fill="#fff" fill-rule="evenodd"/>
          <path id="path101" d="M152.18,25.941a2.316,2.316,0,0,0,2.017.249,6.268,6.268,0,0,1-1.149-.745Z" transform="translate(149.865 1257.772)" fill="#fff" fill-rule="evenodd"/>
          <path id="path103" d="M154.734,29.117a1.123,1.123,0,0,0,.549,1.013,2.34,2.34,0,0,0,.32-.765,1.89,1.89,0,0,0-.744-1.147A2.534,2.534,0,0,0,154.734,29.117Z" transform="translate(149.865 1257.772)" fill="#fff" fill-rule="evenodd"/>
          <path id="path105" d="M154.766,33.832c-.073.485.464.549.692.818.187.227-.124.382-.124.6a2.8,2.8,0,0,1,.62,1.759,17.068,17.068,0,0,0,.479-1.883c-.042-.454-.765-.361-.653-.868a2.239,2.239,0,0,0-.177-1.489c-.042-.074-.135-.219-.216-.177-.19.424-.655.723-.623,1.24Z" transform="translate(149.865 1257.772)" fill="#fff" fill-rule="evenodd"/>
          <path id="path107" d="M156.184,31.371l.537,1.044c.239-.029.392-.259.578-.422.146-.435-.238-.715-.351-1.066-.1-.249,0-.579-.177-.8-.134-.082-.291-.217-.446-.177l-.143,1.418Z" transform="translate(149.865 1257.772)" fill="#fff" fill-rule="evenodd"/>
          <path id="path109" d="M156.876,28.621a3,3,0,0,1,1.137,1.084c.364,1.055.943,2.007,1.367,3.03.156.714.28,1.35.477,2.054.073.183.031.546.322.516.082-.786.238-1.541.248-2.358a3.142,3.142,0,0,0-.921-.694v-.071c.042-.177.187-.383.4-.35.092-.106.372-.208.249-.393-.539-.537-.508-1.464-1.368-1.631a.779.779,0,0,1-.4-.723,2.472,2.472,0,0,0-1.513-.464Z" transform="translate(149.865 1257.772)" fill="#fff" fill-rule="evenodd"/>
          <path id="path111" d="M157.372,34.226c.529.484.344,1.188.3,1.84-.082.393.415.166.571.372a2.26,2.26,0,0,1,.019,1.686,10.089,10.089,0,0,0,.818-1.262c-.011-.177.216-.259.208-.475.092-.3-.259-.166-.4-.2-.124-.031-.259-.114-.219-.278a2.518,2.518,0,0,0-.082-1.654c-.124-.425.053-.992-.145-1.365-.331.455-1.315.559-1.067,1.335Z" transform="translate(149.865 1257.772)" fill="#fff" fill-rule="evenodd"/>
          <path id="path113" d="M158.335,26.882c.922.932,1.595,1.867,2.588,2.767a10.519,10.519,0,0,0-.052-1.169,2.769,2.769,0,0,0-.643-.692C159.5,27.715,159.111,26.727,158.335,26.882Z" transform="translate(149.865 1257.772)" fill="#fff" fill-rule="evenodd"/>
          <path id="path115" d="M160.747,31.812a1.609,1.609,0,0,0,.1.269,13.553,13.553,0,0,1,1.067,2.058c-.083-.764.436-1.717-.249-2.305-.093-.249-.4-.166-.6-.146Z" transform="translate(149.865 1257.772)" fill="#fff" fill-rule="evenodd"/>
          <path id="path117" d="M163.231,39.367c.291.132.662-.106.942-.27a.844.844,0,0,1,.674.217c.082.165,0,.319.029.475a6.322,6.322,0,0,1,1.782.765l.174-.175a1.214,1.214,0,0,0-.64-1.012c-.217-.127-.54-.053-.692-.251a1.076,1.076,0,0,0,.092-.6,1.5,1.5,0,0,1-.839-.27c-.174-.051-.331-.2-.476,0-.516.353-.547.869-1.044,1.119Z" transform="translate(149.865 1257.772)" fill="#fff" fill-rule="evenodd"/>
          <path id="path119" d="M163.957,26.351a1.859,1.859,0,0,0,.745-.33c.691-.631,1.7-.208,2.5-.218a5.582,5.582,0,0,0-.568-.8,2.383,2.383,0,0,0-.89-.249c-.7-.412-1.179.28-1.719.62A1.158,1.158,0,0,0,163.957,26.351Z" transform="translate(149.865 1257.772)" fill="#fff" fill-rule="evenodd"/>
          <path id="path121" d="M163.977,28.48c0-.029,0-.062.031-.071.093.083-.011.278.145.319a5.934,5.934,0,0,0,.765-.494c.695,0,1.108-.672,1.789-.672a10.264,10.264,0,0,1,3.26.991,2.24,2.24,0,0,0-1.24-1.584.857.857,0,0,0-.829.249c-.695.437-.331-.63-.817-.652a5.111,5.111,0,0,1-1.986.354c-.415.154-.706.535-1.17.5a2.594,2.594,0,0,0,.052,1.064Z" transform="translate(149.865 1257.772)" fill="#fff" fill-rule="evenodd"/>
          <path id="path123" d="M164.453,30.788c.216.227.577.185.89.227l.9-.35c.011-.166-.269-.209-.208-.392.249-.28.592-.084.9-.2.437-.061.881-.5,1.314-.175-.01.051.022.125-.019.175-.137.322.093.517.341.641.508.1.983.56,1.491.351a9.147,9.147,0,0,0-.27-1.22c-.424-.073-.723-.424-1.117-.57a.849.849,0,0,1-.622.27c-.8-.186-1.75-.682-2.556-.175-.291.35-.808.248-1.2.4A4.583,4.583,0,0,0,164.453,30.788Z" transform="translate(149.865 1257.772)" fill="#fff" fill-rule="evenodd"/>
          <path id="path125" d="M164.794,36.935c-.063.176-.238.466.082.548.664.022,1.512-.319,2.031.2.175.136.092.413.082.59l.868.725a7.494,7.494,0,0,0,.249-1.3,1.448,1.448,0,0,0-.526-.869c-.571,0-.9-.666-1.513-.581-.32-.074-.6.21-.921.21a5.254,5.254,0,0,0-.351.475Z" transform="translate(149.865 1257.772)" fill="#fff" fill-rule="evenodd"/>
          <path id="path127" d="M165.043,32.06c.134.277.291.734.549.765a2.943,2.943,0,0,1,2.184-.145c.228.041.228.3.177.466.351.207.776.37,1.148.6l-.1-.62c-.022-.673-.87-.736-.922-1.4a4.1,4.1,0,0,0-2.2-.123c-.24.218-.58.187-.87.25-.019.082.031.133.042.207Z" transform="translate(149.865 1257.772)" fill="#fff" fill-rule="evenodd"/>
          <path id="path129" d="M165.22,35.411c.4-.114.66-.559,1.1-.6a2.018,2.018,0,0,1,1.666.848c.251.165.2.59.518.59a10.225,10.225,0,0,1,.053-1.491c-.437-.723-1.51-.166-1.914-1.013l-.765.051c-.549.135-.4.777-.478,1.211-.062.135-.186.238-.175.4Z" transform="translate(149.865 1257.772)" fill="#fff" fill-rule="evenodd"/>
          <path id="path131" d="M169.015,39.934c.322.641,1.027,1.128,1.1,1.863a3.5,3.5,0,0,0,.394-.641c-.011-.208-.25-.208-.344-.372-.093-.269.053-.506.094-.746a2,2,0,0,0-.817-.971l-.425.868Z" transform="translate(149.865 1257.772)" fill="#fff" fill-rule="evenodd"/>
          <path id="path133" d="M170.292,38.3l.744,1.013a2.672,2.672,0,0,0,.2-1.863c-.071-.114-.207-.3-.393-.217-.281.291-.321.734-.547,1.066Z" transform="translate(149.865 1257.772)" fill="#fff" fill-rule="evenodd"/>
          <path id="path135" d="M167.257,9.991a2.154,2.154,0,0,0,.848.278,1.1,1.1,0,0,1,.768-.124c.383.249.848-.052,1.292-.031a4.777,4.777,0,0,0-1.292-.816C168.292,9.422,167.828,9.834,167.257,9.991Z" transform="translate(149.865 1257.772)" fill="#fff" fill-rule="evenodd"/>
          <path id="path137" d="M171.306,10.964c.546.051.94.536,1.313.943a1.834,1.834,0,0,1,1.1.744l-.176-.549a3.5,3.5,0,0,0-.816-1.406A4,4,0,0,0,171.306,10.964Z" transform="translate(149.865 1257.772)" fill="#fff" fill-rule="evenodd"/>
          <path id="path139" d="M132.679,6.425l.3.031c.808.4,2.112.61,2.184,1.778a6.4,6.4,0,0,0-2.254,1.417c-.5-.507-1.5-.228-1.667-1.116.156-.838.455-1.891,1.437-2.11Z" transform="translate(149.865 1257.772)" fill="#f60" fill-rule="evenodd"/>
          <path id="path141" d="M133.457,11.67c.94-.082,1.851.05,2.826-.031a1.236,1.236,0,0,1,.6.548c-.031,1.116-.373,2.183-.425,3.33a1.531,1.531,0,0,0-.941.993,8.23,8.23,0,0,0-1.1.516,1.087,1.087,0,0,1,.157-1.167c.4-.57,1.449-.435,1.364-1.335.27-.435.011-.993.022-1.449-.1-.34-.207.114-.373.1a1.352,1.352,0,0,1-.961-.071c-.219-.23-.488-.414-.55-.725a1.692,1.692,0,0,1-.775-.673Z" transform="translate(149.865 1257.772)" fill="#f60" fill-rule="evenodd"/>
          <path id="path143" d="M134.6,18.413c.442.061.91-.135,1.293.082a.739.739,0,0,1-.476.249l-.693.322C134.461,19,134.605,18.588,134.6,18.413Z" transform="translate(149.865 1257.772)" fill="#f60" fill-rule="evenodd"/>
          <path id="path145" d="M136.407,9.776c.443-.145.921-.443,1.4-.3a6.68,6.68,0,0,0-.868,1.2l-1.418-.03a2,2,0,0,1,.889-.87Z" transform="translate(149.865 1257.772)" fill="#f60" fill-rule="evenodd"/>
          <path id="path147" d="M140.558,9.435c.588-.1.557.662,1.1.694.094.124.229.236.176.422a9,9,0,0,1-1.119.145c-.466-.259-.164-1.065-.9-1.013-.04-.061-.124-.186-.02-.228A1.777,1.777,0,0,1,140.558,9.435Z" transform="translate(149.865 1257.772)" fill="#f60" fill-rule="evenodd"/>
          <path id="path149" d="M140.185,12.208a1.417,1.417,0,0,1,1.024-.466l2.681.052c.114.1-.1.2-.1.32-.166.155-.4.2-.55.343-.351.011-.322.422-.57.6-.384.382-.941.208-1.387.145a1.188,1.188,0,0,1-.4-.445l-.124.124c.156.58.114,1.222.227,1.81l.641.425c.011.951,1.129.693,1.616,1.221a2.9,2.9,0,0,1-.588.921,3.461,3.461,0,0,0-1.315-.8c-.041-.559-.651-.889-.994-1.169-.093-1.013-.114-2.048-.278-3.03Z" transform="translate(149.865 1257.772)" fill="#f60" fill-rule="evenodd"/>
          <path id="path151" d="M141.157,18.588H142.4l-.156.652L141,18.712c-.029-.1.083-.134.156-.124Z" transform="translate(149.865 1257.772)" fill="#f60" fill-rule="evenodd"/>
          <path id="path153" d="M143.392,6.872l.921-.291a9.418,9.418,0,0,1,1.511.91,3.647,3.647,0,0,1,.145,2.44c-.28.312-.89,0-1.117.5h-.042a4.55,4.55,0,0,0-2.215-2.285,1.917,1.917,0,0,1,.8-1.27Z" transform="translate(149.865 1257.772)" fill="#f60" fill-rule="evenodd"/>
          <path id="path155" d="M164.98,46.274H170.5a4.031,4.031,0,0,0,2.338-.705,10.749,10.749,0,0,0,7.742-1.777,16.194,16.194,0,0,0,3.01-3.164,11.409,11.409,0,0,0,1.69-3.145,14.749,14.749,0,0,0,.667-2.214,21.054,21.054,0,0,0-.791-11q-.325-.95-.726-1.829c-1.458-3.01-3.44-6.257-6.5-8.162a13.062,13.062,0,0,1-4.277-4.448c-.529-.477-1.036-1.107-1.719-1.221a2.692,2.692,0,0,1,.446.971l-.042.052a2.511,2.511,0,0,1-1.791-.829l.55-.5a2.913,2.913,0,0,0-.674-.2c-2.091-.238-3.809.723-5.66,1.189l-.031.1c1.137.506,1.375,1.757,2.038,2.607.166-.2.446-.053.672-.074.331.021.641.259.961.176a2.825,2.825,0,0,0-.2-.743,1.357,1.357,0,0,1,.653,0c.6.35,1.563-.064,1.935.743a11.25,11.25,0,0,0-1.966.341c.041.259.3.466.28.725a6.494,6.494,0,0,0-1.74-.445l-.029.092a5.993,5.993,0,0,0,2.928,1.77c1.563.361,2.939-.382,4.448-.124a17.324,17.324,0,0,1,8.252,9.259q.1.265.194.536a17.911,17.911,0,0,1,.217,11,13.5,13.5,0,0,1-2.377,4.024,8.418,8.418,0,0,1-1.358,1.335,6.086,6.086,0,0,1-5.442,1.2c-.123-.081-.374-.1-.333-.319.07-.287.134-.581.19-.879a21.813,21.813,0,0,0,.392-5.217c0-.076-.006-.153-.009-.228a19.9,19.9,0,0,0-1.565-7.094,24.568,24.568,0,0,0-2.23-3.911,9.253,9.253,0,0,0-4.146-3.414,3.1,3.1,0,0,0-3.156.549,2.119,2.119,0,0,0-.726,1.9,6.478,6.478,0,0,1-2.981.963c-.267.023-.541.119-.816.118a4.436,4.436,0,0,1-.771-.032,7.617,7.617,0,0,1-3.646-1.675c-.021-.535-.053-1.044-.073-1.611a1.952,1.952,0,0,1-1.1-1.542l.053-.052a4.327,4.327,0,0,1,.919.445,6.782,6.782,0,0,0-.692-2.306c-.373-.156-.748-.278-1.1-.466a1.767,1.767,0,0,1-.722-1.2c.361.354.992.229,1.272.6-.486-1.438-.5-3.082-1.294-4.4-.4-.972-1.46-1.417-2.184-2.132-.28-.34-.393-.816-.9-.869-.414-.1-.446-.569-.518-.868.259.03.476.207.695.248-.6-1.594-1.129-3.361-2.754-4.374l-.28.175A17.022,17.022,0,0,1,143.8,4.4a2.659,2.659,0,0,1,1.17-.777,2.8,2.8,0,0,0-1.4-.517,2.867,2.867,0,0,1-1.353.589l-.051-.04c-.011-.371-.1-.829.462-.921a3.223,3.223,0,0,0-1.977,0c-.156.4-.6.765-.568,1.24a8.3,8.3,0,0,1-.879,1.014,9.536,9.536,0,0,1,.474-2.2c-.466.175-.939.422-1.394.641a19.053,19.053,0,0,0-2.295-1.168c-.073-.032-.229-.063-.2.071.672.486.413,1.4.484,2.09l-.425-.35c-.207-.528-.805-.911-.907-1.491a7.891,7.891,0,0,0-1.807.6l-.091.051a1.463,1.463,0,0,1,1.138.765,13.445,13.445,0,0,1-2.11-.319c-.073-.073-.134-.156-.25-.145a3.978,3.978,0,0,0-.993.642,6.954,6.954,0,0,0-1.78,2.409,1.591,1.591,0,0,1,.714.177c-.392.238-.734.641-1.118.869a9.511,9.511,0,0,0-.145,1.738,7.8,7.8,0,0,0-.9,1.364,20.279,20.279,0,0,0-.713,6.743c-.208.2-.478.323-.672.476l.021,2.11h.051c.1-.445.623-.693.942-.992h.1c-.051.475-.114.95-.124,1.438l-.6.5c-.6.527-.092,1.322-.145,1.984.043.177.072.435.2.477a2.759,2.759,0,0,1,.442-.672c.259-.064.486-.27.723-.3a10.793,10.793,0,0,1-.518,1.52,1.9,1.9,0,0,0-.315.259.746.746,0,0,0-.209.385,46.425,46.425,0,0,0,2.036,7.177c-.571.96-.893,2.094-1.367,3.088-.067.139-.128.28-.186.424-.476,1.2-.62,2.546-1.212,3.7a4.072,4.072,0,0,0-.764-.4,3.122,3.122,0,0,0-3.229.724,2.775,2.775,0,0,0-2.042.371,2.723,2.723,0,0,0-.9,1.108,2.244,2.244,0,0,0-.16.982,2.375,2.375,0,0,0-.869,1.313,4.076,4.076,0,0,0,.816,3.139h46.07Z" transform="translate(149.865 1257.772)" fill="#fff" fill-rule="evenodd"/>
          <path id="path157" d="M185.158,24.266q-.325-.95-.726-1.829c-1.458-3.01-3.44-6.257-6.5-8.162a13.062,13.062,0,0,1-4.277-4.448c-.529-.477-1.036-1.107-1.719-1.221a2.692,2.692,0,0,1,.446.971l-.042.052a2.511,2.511,0,0,1-1.791-.829l.55-.5a2.913,2.913,0,0,0-.674-.2c-2.091-.238-3.809.723-5.66,1.189l-.031.1c1.137.506,1.375,1.757,2.038,2.607.166-.2.446-.053.672-.074.331.021.641.259.961.176a2.824,2.824,0,0,0-.2-.743,1.357,1.357,0,0,1,.653,0c.6.35,1.563-.064,1.935.743a11.25,11.25,0,0,0-1.966.341c.041.259.3.466.28.725a6.494,6.494,0,0,0-1.74-.445l-.029.092a5.993,5.993,0,0,0,2.928,1.77c1.563.361,2.939-.382,4.448-.124a17.324,17.324,0,0,1,8.252,9.259q.1.265.194.536a17.911,17.911,0,0,1,.217,11,13.5,13.5,0,0,1-2.377,4.024,8.418,8.418,0,0,1-1.358,1.335,6.086,6.086,0,0,1-5.442,1.2c-.123-.081-.374-.1-.333-.319.07-.287.134-.581.19-.879a21.814,21.814,0,0,0,.392-5.217c0-.076-.006-.153-.009-.228a19.9,19.9,0,0,0-1.565-7.094,24.569,24.569,0,0,0-2.23-3.911,9.253,9.253,0,0,0-4.146-3.414,3.105,3.105,0,0,0-3.156.549,2.119,2.119,0,0,0-.726,1.9,6.478,6.478,0,0,1-2.981.963c-.267.023-.541.119-.816.118a4.436,4.436,0,0,1-.771-.032,7.617,7.617,0,0,1-3.646-1.675c-.021-.535-.053-1.044-.073-1.611a1.952,1.952,0,0,1-1.1-1.542l.053-.052a4.327,4.327,0,0,1,.919.445,6.782,6.782,0,0,0-.692-2.306c-.373-.156-.748-.278-1.1-.466a1.767,1.767,0,0,1-.722-1.2c.361.354.992.229,1.272.6-.486-1.438-.5-3.082-1.294-4.4-.4-.972-1.46-1.417-2.184-2.132-.28-.34-.393-.816-.9-.869-.414-.1-.446-.569-.518-.868.259.03.476.207.695.248-.6-1.594-1.129-3.361-2.754-4.374l-.28.175A17.022,17.022,0,0,1,143.8,4.4a2.659,2.659,0,0,1,1.17-.777,2.8,2.8,0,0,0-1.4-.517,2.867,2.867,0,0,1-1.353.589l-.051-.04c-.011-.371-.1-.829.462-.921a3.223,3.223,0,0,0-1.977,0c-.156.4-.6.765-.568,1.24a8.3,8.3,0,0,1-.879,1.014,9.535,9.535,0,0,1,.474-2.2c-.466.175-.939.422-1.394.641a19.053,19.053,0,0,0-2.295-1.168c-.073-.032-.229-.063-.2.071.672.486.413,1.4.484,2.09l-.425-.35c-.207-.528-.805-.911-.907-1.491a7.891,7.891,0,0,0-1.807.6l-.091.051a1.463,1.463,0,0,1,1.138.765,13.445,13.445,0,0,1-2.11-.319c-.073-.073-.134-.156-.25-.145a3.978,3.978,0,0,0-.993.642,6.954,6.954,0,0,0-1.78,2.409,1.591,1.591,0,0,1,.714.177c-.392.238-.734.641-1.118.869a9.511,9.511,0,0,0-.145,1.738,7.8,7.8,0,0,0-.9,1.364,20.279,20.279,0,0,0-.713,6.743c-.208.2-.478.323-.672.476l.021,2.11h.051c.1-.445.623-.693.942-.992h.1c-.051.475-.114.95-.124,1.438l-.6.5c-.6.527-.092,1.322-.145,1.984.043.177.072.435.2.477a2.759,2.759,0,0,1,.442-.672c.259-.064.486-.27.723-.3a10.793,10.793,0,0,1-.518,1.52,1.9,1.9,0,0,0-.315.259.746.746,0,0,0-.209.385,46.425,46.425,0,0,0,2.036,7.177c-.571.96-.893,2.094-1.367,3.088-.067.139-.128.28-.186.424-.476,1.2-.62,2.546-1.212,3.7a4.072,4.072,0,0,0-.764-.4,3.122,3.122,0,0,0-3.229.724,2.775,2.775,0,0,0-2.042.371,2.723,2.723,0,0,0-.9,1.108,2.244,2.244,0,0,0-.16.982,2.375,2.375,0,0,0-.869,1.313,4.076,4.076,0,0,0,.816,3.139H137.2a5.96,5.96,0,0,1-.706-1.147c-.392-.591-.123-1.428-.165-2.111.373-.751.751-1.507,1.177-2.242.086-.148.173-.293.261-.437l.839-.32c.445,0,.818-.32,1.242-.208.57.57.57-.568,1.119-.62,1.283-.166,2.556-.042,3.279,1.044,0,.145.23.145.177.28-.166.05-.322-.053-.5-.053-.786-.2-1.709-.694-2.484-.249-.03.186-.07.375-.107.56a5.694,5.694,0,0,0-.091.577,3.132,3.132,0,0,1,1.314.9,2.1,2.1,0,0,1,1.294-.9,3.006,3.006,0,0,1,1.243.372c.653.6.331,1.625.27,2.389.588.33,1.241.518,1.84.838a2.9,2.9,0,0,1-.992.477l-.993-.2c-.114-.082-.312-.082-.353-.227a5.2,5.2,0,0,0-.941,1.271h14.179a7.488,7.488,0,0,0-.662-1.147,5.9,5.9,0,0,1-.207-2.132l1.325-2.017a12.251,12.251,0,0,1,2.328-.145.864.864,0,0,0,.114-.061c.326-.225.426-.749.911-.684a2.676,2.676,0,0,1,2.184.549,1.026,1.026,0,0,1-.066.135c-.273.437-.784-.051-1.157.081-.156.166.073.361.1.549.135.185-.135.164-.227.2a.71.71,0,0,1-.622-.2c-.041-.053-.01-.114-.092-.124a3.194,3.194,0,0,0-.529.94,2.574,2.574,0,0,1,.672.746c.238.341-.187.6-.269.9a.089.089,0,0,1-.156,0c-.219-.124-.4-.435-.643-.354-.208.922.072,1.842-.052,2.763a7.783,7.783,0,0,0,1.314,0l.177-1.945a6.365,6.365,0,0,1,1.812-3.28c.95-.649,1.563.633,2.265,1.077.115.021.074.145.124.217-.01.208-.227.29-.372.353-.436.154-.757-.322-1.025-.6-.258.28-.373.651-.672.87l.1.03a2.263,2.263,0,0,1,.748,1.159,1.3,1.3,0,0,1-.623,1.024,10.243,10.243,0,0,1-.691-1.491c.01.022-.012.031-.032.053-.571.154-.722.795-.817,1.313.031.507-.352.714-.25,1.22H170.5a4.031,4.031,0,0,0,2.338-.705,10.749,10.749,0,0,0,7.742-1.777,16.194,16.194,0,0,0,3.01-3.164,11.409,11.409,0,0,0,1.69-3.145,14.749,14.749,0,0,0,.667-2.214,21.051,21.051,0,0,0-.792-11Z" transform="translate(149.865 1257.772)" fill="#bfbebe" fill-rule="evenodd"/>
          <path id="path159" d="M137.661,43.462c.4-.259,1.056-.322,1.148-.921a1.418,1.418,0,0,0-.5-.322l-.425.124a5.081,5.081,0,0,1,.251-.8L139.5,41.1a11.044,11.044,0,0,0-.322,2.11A7.581,7.581,0,0,0,140,46.274h-1.471c-.165-.971-1.181-1.676-.868-2.813Z" transform="translate(149.865 1257.772)" fill="#bfbebe" fill-rule="evenodd"/>
          <path id="path161" d="M140.84,42.22h.082l.992.9.145-.031c-.081,1.055-.134,2.09-.145,3.185h-1.075a13.043,13.043,0,0,1-.539-3.2,4.8,4.8,0,0,1,.54-.85Z" transform="translate(149.865 1257.772)" fill="#bfbebe" fill-rule="evenodd"/>
          <path id="path163" d="M143.053,43.214c.2-.257.28-.694.672-.744a1.058,1.058,0,0,1,.748.248c.362.454.008,1.035-.124,1.49a17.462,17.462,0,0,1-.623,2.068h-1.045l.372-3.061Z" transform="translate(149.865 1257.772)" fill="#bfbebe" fill-rule="evenodd"/>
          <path id="path165" d="M158.754,42.893c.228.291.3.683.641.942a1.948,1.948,0,0,0,.228-1.583l-.3-.3c.384-.092.786-.124,1.17-.2a4.308,4.308,0,0,0-.425,1.685c.01.932.165,1.863.248,2.833h-1.138a6.27,6.27,0,0,1-.8-2.833,2.493,2.493,0,0,1,.373-.548Z" transform="translate(149.865 1257.772)" fill="#bfbebe" fill-rule="evenodd"/>
          <path id="path167" d="M163.65,23.022c-.011.269-.207.567-.032.8.251-.28.664-.27,1-.393a8.156,8.156,0,0,1,2.659.414c-.217-.343-.362-.725-.6-1.034-.477-.125-1.2.207-1.283-.5-.29-.248-.744-.071-1.045-.051a2.314,2.314,0,0,0-.693.766Z" transform="translate(149.865 1257.772)" fill="#fff" fill-rule="evenodd"/>
          <path id="path169" d="M132.016,14.09,132,14.079s0,.007,0,.011Z" transform="translate(149.865 1257.772)" fill="#fff" fill-rule="evenodd"/>
          <path id="path171" d="M135.78,23.285l.622-.6a.139.139,0,0,1,.124.05l-.051,1.148a1.616,1.616,0,0,0,1.064.393c.032-.309.27-.528.4-.8.114-.217.042-.537.269-.691l.073.071a3.256,3.256,0,0,0,.228,1.023c.021.166.05.371.07.517a2.566,2.566,0,0,0,1.222-.27,4.659,4.659,0,0,1,.175-1.073c.1-.125-.114-.354.145-.343.146.311.4.63.55.963a4.023,4.023,0,0,0,.992-2.235c-.175-.236-.443-.236-.653-.392a7.79,7.79,0,0,0-5.711.2,2.632,2.632,0,0,0,.478,2.037Z" transform="translate(149.865 1257.772)" fill="#fff" fill-rule="evenodd"/>
          <path id="path173" d="M119.33,42.693a15.9,15.9,0,0,0,.051,2.331,1.181,1.181,0,0,0,.768.578l.051-.528c.124-.734-.269-1.513.146-2.134a5,5,0,0,1,.828.371,1.813,1.813,0,0,0-.706-1.894l-1.138,1.276Z" transform="translate(149.865 1257.772)" fill="#fff" fill-rule="evenodd"/>
          <path id="path175" d="M121.887,41.574a6.093,6.093,0,0,0-.217,3.977,4.7,4.7,0,0,0,.816-.621,4.293,4.293,0,0,1,.394-2.819,1.832,1.832,0,0,1,1.044,1.116,1.9,1.9,0,0,0,.323-1.611c.021-.456-.5-.351-.745-.538.082-.383.071-.826.476-1.044l-1.241.124A5.891,5.891,0,0,0,121.887,41.574Z" transform="translate(149.865 1257.772)" fill="#fff" fill-rule="evenodd"/>
          <path id="path177" d="M124.444,45.148c.052.092,0,.259.105.28.154-.87.857-1.432,1.242-2.2.185-.255.176-.62.476-.816.4,0,.693.29,1.087.32.124.094-.064.177-.074.28a10.3,10.3,0,0,0-.3,2.011h.072a10.584,10.584,0,0,0,1.325-1.867l.071-.588c.1-.7-.67-1.158-1.17-1.449l.446-.57-.622-.217a2.824,2.824,0,0,0-1.883.943,8.4,8.4,0,0,0-.774,3.871Z" transform="translate(149.865 1257.772)" fill="#fff" fill-rule="evenodd"/>
          <path id="path179" d="M127.229,39.01c.237.071.455-.124.691-.022a6.293,6.293,0,0,1,2.661,1.51l.849,2.163.425-1.336-.28-.722c-.239-.517-.89-.475-1.336-.5-.186-.208.01-.445.073-.641.217-.735-.683-.694-1.045-.993.021-.443-.518-.291-.818-.33l-.1-.124a.211.211,0,0,0-.3-.022c-.019-.031-.061-.052-.04-.1l-.227.051a1.455,1.455,0,0,0-.55,1.066Z" transform="translate(149.865 1257.772)" fill="#fff" fill-rule="evenodd"/>
          <path id="path181" d="M127.827,36.631a.679.679,0,0,0,.217.351c.467-.124.914-.446,1.45-.249a8.17,8.17,0,0,0,2.257,1.581l.3-.051c.185.061.392.071.515.28.115.28-.175.443-.267.671.465.343.28.951.568,1.365l.744-.991c-.174-.435.011-1.179-.67-1.221a.648.648,0,0,1-.375-.6c-.443-.4-.992-.579-1.437-.993-.365-.288-.581-.733-1.045-.837a3.806,3.806,0,0,0-1.045-.35C128.346,35.482,128.284,36.309,127.827,36.631Z" transform="translate(149.865 1257.772)" fill="#fff" fill-rule="evenodd"/>
          <path id="path183" d="M128.822,34.593l.124.2c.518-.032.982-.259,1.49-.25.341.207.786.2,1.138.372a3.963,3.963,0,0,0,.992,1.074c.839.124,1.3,1.027,1.594,1.686v-.319a2.241,2.241,0,0,0-.174-1.367c-.208-.207-.51-.34-.726-.525a.426.426,0,0,1,.031-.322,6.891,6.891,0,0,0-1.191-.8c-.549-.8-1.6-.577-2.442-.8Z" transform="translate(149.865 1257.772)" fill="#fff" fill-rule="evenodd"/>
          <path id="path185" d="M128.8,27.007c.092.322.2.724.267,1.066.289-.641.86-.932,1.367-1.458a2.614,2.614,0,0,0-.972-.351v-.021C129.237,26.468,128.885,26.7,128.8,27.007Z" transform="translate(149.865 1257.772)" fill="#fff" fill-rule="evenodd"/>
          <path id="path187" d="M130.685,30.41l.465-.475a2.936,2.936,0,0,0,.921-1.636,1.328,1.328,0,0,0-1.085.053,13,13,0,0,0-.3,2.058Z" transform="translate(149.865 1257.772)" fill="#fff" fill-rule="evenodd"/>
          <path id="path189" d="M131.025,31.869a3.013,3.013,0,0,0,1.989-.219l.581-1.861c-.188-.011-.375-.1-.55-.031A4.536,4.536,0,0,1,131.025,31.869Z" transform="translate(149.865 1257.772)" fill="#fff" fill-rule="evenodd"/>
          <path id="path191" d="M131.236,25.271a4.176,4.176,0,0,0,2.038,1.664c-.092-.87-.837-1.47-1.221-2.212l-.021-.249a3.8,3.8,0,0,0-.973-.641,4.884,4.884,0,0,0,.177,1.438Z" transform="translate(149.865 1257.772)" fill="#fff" fill-rule="evenodd"/>
          <path id="path193" d="M133.758,31.951A3.669,3.669,0,0,0,135.4,31.8c.734-.177,1.139-.982,1.387-1.612h-.921l-.992.971A7.535,7.535,0,0,0,133.758,31.951Z" transform="translate(149.865 1257.772)" fill="#fff" fill-rule="evenodd"/>
          <path id="path195" d="M133.647,24.329a6.047,6.047,0,0,0,.964,2.235l.123-1.542-1.087-.693Z" transform="translate(149.865 1257.772)" fill="#fff" fill-rule="evenodd"/>
          <path id="path197" d="M137.04,28.352a7.537,7.537,0,0,0-.215-1.643c-.311-.208-.744-.188-1.066-.392a3.042,3.042,0,0,0,1.281,2.036Z" transform="translate(149.865 1257.772)" fill="#fff" fill-rule="evenodd"/>
          <path id="path199" d="M136.1,33.605a10.361,10.361,0,0,0,1.885-.765c.383-.549.961-1.044,1.045-1.685-.479.134-.89-.022-1.336.2a3.411,3.411,0,0,1-.952,1.386C136.657,33.087,136.274,33.326,136.1,33.605Z" transform="translate(149.865 1257.772)" fill="#fff" fill-rule="evenodd"/>
          <path id="path201" d="M137.112,34.877l.776,1.013a1.577,1.577,0,0,0,1.294-.144l-.278-.919A3.624,3.624,0,0,1,137.112,34.877Z" transform="translate(149.865 1257.772)" fill="#fff" fill-rule="evenodd"/>
          <path id="path203" d="M138.406,27.556l.3,1.364a2.734,2.734,0,0,0,.853-2.356,3.209,3.209,0,0,1-1.152.992Z" transform="translate(149.865 1257.772)" fill="#fff" fill-rule="evenodd"/>
          <path id="path205" d="M140.446,29.964a.98.98,0,0,0,.174.538c.807.291.89,1.271,1.637,1.643a1.833,1.833,0,0,0,1.468-.249c-.32-.361-.681-.61-.992-.991-.217-.093-.437-.228-.425-.5l-1.861-.445Z" transform="translate(149.865 1257.772)" fill="#fff" fill-rule="evenodd"/>
          <path id="path207" d="M141.087,34.847a2.4,2.4,0,0,0,1.323.722c-.082-.113.053,0,.073-.071l-.622-1.366c-.311.011-.633.074-.921.053A2.849,2.849,0,0,0,141.087,34.847Z" transform="translate(149.865 1257.772)" fill="#fff" fill-rule="evenodd"/>
          <path id="path209" d="M142.185,28.476a8.111,8.111,0,0,1-.5-2.233c-.309.372-.63.611-.921.991C140.633,28,141.729,28.186,142.185,28.476Z" transform="translate(149.865 1257.772)" fill="#fff" fill-rule="evenodd"/>
          <path id="path211" d="M143.445,27.771c.375.488,1.191.323,1.647.177-.218-.372-.919-.591-1.043-.991A8.805,8.805,0,0,0,143.6,24.9c-.362.877-.8,1.923-.158,2.872Z" transform="translate(149.865 1257.772)" fill="#fff" fill-rule="evenodd"/>
          <path id="path213" d="M144.1,29.964c1.035.755,2.05,1.634,3.5,1.313.1-.071.281-.063.3-.2-.425-.269-.879-.477-1.314-.725l-.5-.723h-.228a8.964,8.964,0,0,1-1.761.33Z" transform="translate(149.865 1257.772)" fill="#fff" fill-rule="evenodd"/>
          <path id="path215" d="M144.119,38.352h.074a5.526,5.526,0,0,1,2.089-.869c.2.073.073.291.25.372.445-.185.983-.145,1.438-.3a3.1,3.1,0,0,1,1.439.267c.354.466,1.014.413,1.471.725l-.074-.725c-.961-1.127-2.462-1.209-3.849-1.188l-.031-.145a2.469,2.469,0,0,0-1.014.217,5.342,5.342,0,0,0-1.294.371A11.933,11.933,0,0,0,144.119,38.352Z" transform="translate(149.865 1257.772)" fill="#fff" fill-rule="evenodd"/>
          <path id="path217" d="M144.951,25.642a1.747,1.747,0,0,0,1.687.8c-.351-.344-.756-.705-.776-1.19.1-.921-.91-.995-1.407-1.47A6.246,6.246,0,0,0,144.951,25.642Z" transform="translate(149.865 1257.772)" fill="#fff" fill-rule="evenodd"/>
          <path id="path219" d="M144.844,40.182h.124c.547-.34,1.345-.081,1.883-.443.3-.156.321.259.528.372.508.308.571,1.24,1.284,1.023.857.444.641,1.489.672,2.253l.8-.5c-.073-.4.156-.89-.1-1.241-.2-.444-.735-.485-.994-.847.312-.528-.393-.778-.539-1.16l.043-.051,1.1.145a1.638,1.638,0,0,1,.622,1.024c.857.145,1.064,1.116,1.365,1.736.177-.423.249-.88.425-1.293.011-.341-.445-.341-.672-.5a1.835,1.835,0,0,0-.765-1.343,11.238,11.238,0,0,0-2.835-.766l-.869.267c-.478.115-.984-.03-1.347.3-.54.042-.58.632-.714,1.013Z" transform="translate(149.865 1257.772)" fill="#fff" fill-rule="evenodd"/>
          <path id="path221" d="M145.392,35.922l.2.094c.425-.2.848-.424,1.294-.59.691-.2,1.23.59,1.812.093.216-.154.4.073.567.2.252.454.829.423,1.265.546-.218-.588-.488-1.395-1.243-1.489a7.328,7.328,0,0,1-.941-.3c-.8-.879-1.314.725-2.187.333A2.4,2.4,0,0,0,145.392,35.922Z" transform="translate(149.865 1257.772)" fill="#fff" fill-rule="evenodd"/>
          <path id="path223" d="M145.59,40.959c.331.28.672.756,1.191.693.64.3.372,1.148.722,1.594l.373-.332-.031-.022.052-.051.022.029a1.97,1.97,0,0,0-.219-1.22c-.237-.165-.515.011-.744-.145a1.033,1.033,0,0,0-.476-.7c-.166-.126-.384.04-.571.029l-.32.127Z" transform="translate(149.865 1257.772)" fill="#fff" fill-rule="evenodd"/>
          <path id="path225" d="M146.884,28.352a5.352,5.352,0,0,0,1.532,1.313,2.454,2.454,0,0,0,1.47.144,9.486,9.486,0,0,1-1.221-1.209c-.146-.208-.177-.467-.373-.652a2.9,2.9,0,0,0-1.408.4Z" transform="translate(149.865 1257.772)" fill="#fff" fill-rule="evenodd"/>
          <path id="path227" d="M147.455,24.651c.476.589,1.211.351,1.883.372V24.95l-1.035-.869A2.732,2.732,0,0,0,147.455,24.651Z" transform="translate(149.865 1257.772)" fill="#fff" fill-rule="evenodd"/>
          <path id="path229" d="M128.4,14.9l.6,1.862c-.011-1.055.478-1.936.374-3.01l.443-.663-.942.291A3.491,3.491,0,0,0,128.4,14.9Z" transform="translate(149.865 1257.772)" fill="#fff" fill-rule="evenodd"/>
          <path id="path231" d="M128.8,11.67l.817-.475V9.984a4.364,4.364,0,0,0-.8.837Z" transform="translate(149.865 1257.772)" fill="#fff" fill-rule="evenodd"/>
          <path id="path233" d="M145.592,13.552a1.143,1.143,0,0,1-.745.371,3.523,3.523,0,0,0,.3-2.8,4.21,4.21,0,0,0,.692-.248l-.021-.022.57-.5c.755-.517.464-1.5.744-2.233-.372-.578-.486-1.282-1.024-1.768l.031-.021c-.425-.538-1.19-.475-1.77-.744-.768-.259-1.357.269-1.907.62-.238.042-.092.351-.351.34a10.633,10.633,0,0,0-.426,1.221,4.14,4.14,0,0,0-2.949.548,4.306,4.306,0,0,0-1.47-.527c-.373-.074-.8.061-1.065-.146-.393-.443-.478-1.251-1.151-1.364-.238-.084-.288-.343-.288-.57-.446-.074-.841-.28-1.273-.372-.662-.3-1.19.177-1.687.5a5.015,5.015,0,0,0-.674.248,9.777,9.777,0,0,0-.963,1.81,3.807,3.807,0,0,0,.571,1.438,2.932,2.932,0,0,0,1.614,1.47,6.082,6.082,0,0,0,0,3.277s-.017.014-.017.011a.283.283,0,0,1-.033.031.549.549,0,0,1-.286-.031H132a4.537,4.537,0,0,0,1.365,2.6c.27.093.207.414.32.62a.483.483,0,0,1,.053.372,8.134,8.134,0,0,0-4.349,1.086c-.331.166-.186.62-.217.942a7.982,7.982,0,0,1,2.981-1.242,4.563,4.563,0,0,1,1.439-.021l.051.892a13.129,13.129,0,0,0-3.631,2.069,4.091,4.091,0,0,0,.051.96l.943-.765a11.164,11.164,0,0,1,2.906-1.665,3.672,3.672,0,0,0,.943.89,6.974,6.974,0,0,1,2.039-.89c.383-.228.994-.021,1.242-.475l.175-.942c-.029-.021-.051-.063-.1-.053a1.422,1.422,0,0,1-.765-1.333,1.358,1.358,0,0,1-.549.143c-.164-.04-.321-.082-.393-.249-.01-.206-.115-.516.094-.67a4.007,4.007,0,0,1,2.39-.374c.63.084,1.542.052,1.761.8-.031.218-.011.456-.229.6-.228.124-.486-.011-.693-.1a1.717,1.717,0,0,1-1.013,1.242l.071.6c.071.27.093.714.518.62a9.149,9.149,0,0,1,2.712,1.293,6.145,6.145,0,0,0,.723-.921,13.6,13.6,0,0,1,4.122,2.733l.05-.87a14.091,14.091,0,0,0-3.923-2.409,5.516,5.516,0,0,0,.126-.85,10.192,10.192,0,0,1,4.562,1.4l-.021-.744a10.121,10.121,0,0,0-4.7-1.292.5.5,0,0,1-.073-.32,2.3,2.3,0,0,0,1.615-1.738c.426-.485,1.036-1.013.891-1.736.018-.061.039-.124.061-.187a.874.874,0,0,0,.041-.536Z" transform="translate(149.865 1257.772)" fill="#f8f8f8" fill-rule="evenodd"/>
          <path id="path235" d="M147.03,16.211l.848-.27.1-.474c.238-.694-.27-1.211-.519-1.759Z" transform="translate(149.865 1257.772)" fill="#fff" fill-rule="evenodd"/>
          <path id="path237" d="M149.172,19.488c.4.445.8,1.158,1.512.942a4.523,4.523,0,0,0-.321-.818c-.186-.217-.25-.838-.622-.62-.28-.186-.351-.5-.529-.745a7.4,7.4,0,0,0-.041,1.241Z" transform="translate(149.865 1257.772)" fill="#fff" fill-rule="evenodd"/>
          <path id="path239" d="M149.317,22.518c.156.217.2.5.352.694a1.691,1.691,0,0,0,1.037.124c.309-.073.507.267.8.072-.362-.228-.578-.641-.919-.943C150.177,22.146,149.743,22.426,149.317,22.518Z" transform="translate(149.865 1257.772)" fill="#fff" fill-rule="evenodd"/>
          <path id="path241" d="M149.867,27.328a3.994,3.994,0,0,0,2.575.693c.1-.051.28-.041.3-.165a15.91,15.91,0,0,0-1.829-.921c-.342-.527-.787.135-1.222.093C149.7,27.151,149.824,27.244,149.867,27.328Z" transform="translate(149.865 1257.772)" fill="#fff" fill-rule="evenodd"/>
          <path id="path243" d="M152.016,36.46l.156.33c.157,1.076.837,2.068.466,3.247.311.219.4.58.6.87h.051a6.945,6.945,0,0,0-.051-2.731c.093-.817-.737-1.292-1.223-1.716Z" transform="translate(149.865 1257.772)" fill="#fff" fill-rule="evenodd"/>
          <path id="path245" d="M152.195,25.87a2.319,2.319,0,0,0,2.017.249,6.346,6.346,0,0,1-1.149-.745Z" transform="translate(149.865 1257.772)" fill="#fff" fill-rule="evenodd"/>
          <path id="path247" d="M154.75,29.043a1.133,1.133,0,0,0,.549,1.016,2.369,2.369,0,0,0,.32-.766,1.908,1.908,0,0,0-.745-1.149,2.576,2.576,0,0,0-.123.9Z" transform="translate(149.865 1257.772)" fill="#fff" fill-rule="evenodd"/>
          <path id="path249" d="M154.781,33.761c-.074.485.465.548.691.817.187.228-.124.383-.124.6a2.791,2.791,0,0,1,.623,1.757,17.27,17.27,0,0,0,.476-1.881c-.042-.456-.765-.361-.653-.869a2.234,2.234,0,0,0-.176-1.491c-.04-.071-.135-.217-.216-.174C155.214,32.943,154.75,33.244,154.781,33.761Z" transform="translate(149.865 1257.772)" fill="#fff" fill-rule="evenodd"/>
          <path id="path251" d="M156.2,31.3l.537,1.044c.238-.031.393-.259.578-.424.145-.434-.239-.714-.351-1.066-.094-.249,0-.578-.177-.795-.135-.084-.289-.219-.443-.177L156.2,31.3Z" transform="translate(149.865 1257.772)" fill="#fff" fill-rule="evenodd"/>
          <path id="path253" d="M156.89,28.547a3.016,3.016,0,0,1,1.14,1.086c.362,1.055.941,2,1.365,3.029.156.714.28,1.352.476,2.053.074.187.032.548.323.517.081-.786.237-1.542.248-2.358a3.064,3.064,0,0,0-.921-.692V32.11c.042-.175.188-.383.4-.35.092-.1.373-.207.249-.393-.539-.537-.508-1.462-1.365-1.629a.783.783,0,0,1-.4-.723,2.465,2.465,0,0,0-1.514-.467Z" transform="translate(149.865 1257.772)" fill="#fff" fill-rule="evenodd"/>
          <path id="path255" d="M157.389,34.153c.526.485.342,1.189.3,1.841-.082.393.414.164.57.372a2.257,2.257,0,0,1,.022,1.685,10.045,10.045,0,0,0,.816-1.263c-.009-.175.218-.259.208-.476.092-.3-.259-.165-.4-.2-.124-.031-.258-.114-.216-.28a2.541,2.541,0,0,0-.084-1.654c-.124-.424.053-.993-.146-1.366-.332.458-1.316.56-1.065,1.336Z" transform="translate(149.865 1257.772)" fill="#fff" fill-rule="evenodd"/>
          <path id="path257" d="M158.351,26.811c.922.932,1.595,1.867,2.588,2.767a11.044,11.044,0,0,0-.051-1.169,2.742,2.742,0,0,0-.644-.694c-.734-.071-1.117-1.06-1.893-.9Z" transform="translate(149.865 1257.772)" fill="#fff" fill-rule="evenodd"/>
          <path id="path259" d="M160.76,31.739a1.414,1.414,0,0,0,.106.269,13.612,13.612,0,0,1,1.066,2.059c-.084-.766.434-1.716-.251-2.306-.092-.25-.4-.166-.6-.146l-.322.125Z" transform="translate(149.865 1257.772)" fill="#fff" fill-rule="evenodd"/>
          <path id="path261" d="M163.246,39.293c.29.135.662-.1.942-.269a.854.854,0,0,1,.674.218c.082.165,0,.32.031.476a6.284,6.284,0,0,1,1.778.765l.175-.176a1.218,1.218,0,0,0-.641-1.014c-.216-.124-.539-.051-.692-.248a1.075,1.075,0,0,0,.093-.6,1.5,1.5,0,0,1-.837-.269c-.177-.052-.333-.2-.478,0-.516.35-.547.869-1.044,1.116Z" transform="translate(149.865 1257.772)" fill="#fff" fill-rule="evenodd"/>
          <path id="path263" d="M163.972,26.28a1.875,1.875,0,0,0,.744-.333c.695-.631,1.7-.207,2.506-.217a5.647,5.647,0,0,0-.571-.8,2.388,2.388,0,0,0-.89-.248c-.7-.414-1.179.28-1.719.62a1.145,1.145,0,0,0-.071.974Z" transform="translate(149.865 1257.772)" fill="#fff" fill-rule="evenodd"/>
          <path id="path265" d="M163.99,28.409c0-.032,0-.064.031-.072.1.082-.01.281.146.32a6.073,6.073,0,0,0,.765-.5c.693,0,1.108-.673,1.789-.673a10.362,10.362,0,0,1,3.26.992,2.238,2.238,0,0,0-1.241-1.581.849.849,0,0,0-.828.249c-.692.435-.331-.631-.816-.652a5.12,5.12,0,0,1-1.989.35c-.414.157-.7.538-1.17.5a2.7,2.7,0,0,0,.052,1.066Z" transform="translate(149.865 1257.772)" fill="#fff" fill-rule="evenodd"/>
          <path id="path267" d="M164.468,30.714c.217.23.578.188.89.23l.9-.354c.01-.162-.269-.207-.207-.392.249-.28.588-.082.9-.2.434-.063.879-.5,1.314-.177-.013.053.019.124-.022.177-.134.32.093.517.342.641.508.093.982.559,1.49.35a9.317,9.317,0,0,0-.268-1.22c-.425-.072-.726-.423-1.118-.569a.846.846,0,0,1-.622.269c-.8-.187-1.751-.683-2.557-.176-.29.353-.807.249-1.2.4A4.7,4.7,0,0,0,164.468,30.714Z" transform="translate(149.865 1257.772)" fill="#fff" fill-rule="evenodd"/>
          <path id="path269" d="M164.809,36.863c-.062.176-.238.464.084.548.661.02,1.511-.322,2.028.2.176.135.092.414.081.59l.869.724a7.633,7.633,0,0,0,.251-1.294,1.45,1.45,0,0,0-.529-.868c-.571,0-.9-.666-1.513-.585-.32-.071-.6.213-.921.213a5.364,5.364,0,0,0-.351.475Z" transform="translate(149.865 1257.772)" fill="#fff" fill-rule="evenodd"/>
          <path id="path271" d="M165.057,31.986c.134.28.291.735.549.765a2.954,2.954,0,0,1,2.184-.143c.227.04.227.3.177.464.351.207.775.372,1.148.6l-.1-.621c-.021-.672-.868-.733-.921-1.4a4.087,4.087,0,0,0-2.2-.124c-.238.217-.581.188-.868.249-.021.083.029.136.04.207Z" transform="translate(149.865 1257.772)" fill="#fff" fill-rule="evenodd"/>
          <path id="path273" d="M165.233,35.338c.4-.115.664-.558,1.1-.6a2.027,2.027,0,0,1,1.667.851c.248.162.2.587.518.587a10.073,10.073,0,0,1,.05-1.49c-.432-.723-1.51-.164-1.913-1.013l-.765.052c-.55.136-.4.777-.476,1.212-.063.133-.187.236-.178.4Z" transform="translate(149.865 1257.772)" fill="#fff" fill-rule="evenodd"/>
          <path id="path275" d="M169.033,39.862c.32.641,1.025,1.127,1.1,1.861a3.381,3.381,0,0,0,.393-.641c-.011-.207-.249-.207-.341-.372-.1-.269.05-.506.092-.745a2.031,2.031,0,0,0-.817-.972l-.422.87Z" transform="translate(149.865 1257.772)" fill="#fff" fill-rule="evenodd"/>
          <path id="path277" d="M170.306,38.228l.744,1.014a2.669,2.669,0,0,0,.2-1.862c-.071-.115-.207-.3-.392-.217C170.575,37.452,170.533,37.9,170.306,38.228Z" transform="translate(149.865 1257.772)" fill="#fff" fill-rule="evenodd"/>
          <path id="path279" d="M167.272,9.919a2.16,2.16,0,0,0,.85.28,1.069,1.069,0,0,1,.765-.124c.383.249.848-.052,1.294-.031a4.8,4.8,0,0,0-1.294-.818C168.308,9.349,167.843,9.764,167.272,9.919Z" transform="translate(149.865 1257.772)" fill="#fff" fill-rule="evenodd"/>
          <path id="path281" d="M171.319,10.89c.549.052.943.538,1.314.942a1.844,1.844,0,0,1,1.1.744l-.174-.547a3.531,3.531,0,0,0-.818-1.408,4.083,4.083,0,0,0-1.418.27Z" transform="translate(149.865 1257.772)" fill="#fff" fill-rule="evenodd"/>
          <path id="path283" d="M132.7,6.354l.3.032c.805.4,2.109.61,2.184,1.778a6.353,6.353,0,0,0-2.258,1.417c-.5-.506-1.5-.228-1.667-1.116.157-.84.456-1.9,1.44-2.111Z" transform="translate(149.865 1257.772)" fill="#bfbebe" fill-rule="evenodd"/>
          <path id="path285" d="M133.473,11.6c.942-.084,1.853.05,2.826-.032a1.238,1.238,0,0,1,.6.547c-.032,1.117-.373,2.184-.424,3.331a1.528,1.528,0,0,0-.943.992,8.157,8.157,0,0,0-1.1.516,1.1,1.1,0,0,1,.157-1.169c.4-.568,1.45-.435,1.367-1.335.269-.433.011-.992.019-1.447-.1-.343-.207.114-.372.1a1.344,1.344,0,0,1-.962-.074c-.218-.228-.484-.414-.549-.723a1.692,1.692,0,0,1-.776-.672l.156-.038Z" transform="translate(149.865 1257.772)" fill="#bfbebe" fill-rule="evenodd"/>
          <path id="path287" d="M134.611,18.339c.442.064.91-.135,1.293.084-.081.146-.3.207-.476.249l-.695.319C134.476,18.931,134.621,18.516,134.611,18.339Z" transform="translate(149.865 1257.772)" fill="#bfbebe" fill-rule="evenodd"/>
          <path id="path289" d="M136.421,9.705c.443-.145.921-.443,1.4-.3a6.766,6.766,0,0,0-.868,1.2l-1.418-.031a2.01,2.01,0,0,1,.889-.869Z" transform="translate(149.865 1257.772)" fill="#bfbebe" fill-rule="evenodd"/>
          <path id="path291" d="M140.572,9.365c.589-.1.557.662,1.1.691.1.124.23.238.177.424a8.858,8.858,0,0,1-1.118.145c-.467-.259-.165-1.065-.9-1.013-.041-.063-.123-.187-.021-.228a1.74,1.74,0,0,1,.766-.019Z" transform="translate(149.865 1257.772)" fill="#bfbebe" fill-rule="evenodd"/>
          <path id="path293" d="M140.2,12.134a1.412,1.412,0,0,1,1.025-.464l2.681.05c.114.1-.1.2-.1.322-.165.156-.4.2-.549.341-.352.01-.321.424-.568.6-.384.382-.943.206-1.388.145a1.219,1.219,0,0,1-.4-.445l-.124.124c.156.58.115,1.221.23,1.81l.641.424c.01.95,1.128.692,1.614,1.22a2.844,2.844,0,0,1-.589.921,3.513,3.513,0,0,0-1.314-.8c-.042-.556-.653-.889-.992-1.167-.1-1.014-.115-2.049-.28-3.031Z" transform="translate(149.865 1257.772)" fill="#bfbebe" fill-rule="evenodd"/>
          <path id="path295" d="M141.173,18.516h1.243l-.156.651-1.244-.527c-.029-.1.084-.134.157-.124Z" transform="translate(149.865 1257.772)" fill="#bfbebe" fill-rule="evenodd"/>
          <path id="path297" d="M143.408,6.8l.921-.29a9.307,9.307,0,0,1,1.511.91,3.639,3.639,0,0,1,.145,2.44c-.28.309-.89,0-1.117.5h-.043a4.524,4.524,0,0,0-2.214-2.284,1.914,1.914,0,0,1,.8-1.272Z" transform="translate(149.865 1257.772)" fill="#bfbebe" fill-rule="evenodd"/>
        </g>
      </g>
    </g>
  </g>
</svg>
