<svg xmlns="http://www.w3.org/2000/svg" width="132.79" height="103.571" viewBox="0 0 132.79 103.571">
  <g id="Group_27" data-name="Group 27" transform="translate(-1188.361 -1174.292)">
    <path id="Path_12" data-name="Path 12" d="M70.036,49.649A22.925,22.925,0,1,0,47.112,26.725,22.923,22.923,0,0,0,70.036,49.649Zm65.628-5.624v20.9L2.882,64.935V54.8s18.615-3.724,43.643-6.35a30.423,30.423,0,0,0,18.469,6.293,30.111,30.111,0,0,0,21.951-9.473C112.912,43.884,135.663,44.025,135.663,44.025Z" transform="translate(1185.479 1170.492)" fill="#bfbebe" fill-rule="evenodd"/>
    <path id="Path_13" data-name="Path 13" d="M18.656,122.7v12.35H2.882V102.2H18.656v14.782h.093L28.032,102.2H46.946L33.1,119.173l13.067,15.878H28.115l-9.35-12.35h-.11ZM135.672,133.69a47.289,47.289,0,0,1-12.994,1.81c-15.607,0-27.064-4.437-27.064-17.339,0-11.655,11.106-16.72,26.287-16.72a48.605,48.605,0,0,1,13.771,1.8l-.007,11.293A19.178,19.178,0,0,0,125,111.481c-5.789,0-11.574,2.85-11.574,6.991s5.761,6.992,11.574,6.992a20.08,20.08,0,0,0,10.664-3.006ZM49.528,102.2H81.416c8.282,0,11,3.221,11,8.237,0,5.615-5.015,8.051-10.167,8.329v.09c5.291.416,10.444,1.015,10.444,7.639,0,4.326-2.714,8.561-11.824,8.561H49.528ZM65.3,128.371h8.225c3.083,0,4.134-1.278,4.134-3.16s-1.062-3.244-4.1-3.244H65.3Zm0-12.251h7.857c3.036,0,4.226-1.231,4.226-3.115,0-2.163-1.2-3.243-4-3.243H65.3Z" transform="translate(1185.479 1142.363)" fill="#bfbebe" fill-rule="evenodd"/>
  </g>
</svg>
