<svg id="SNCB_logo" xmlns="http://www.w3.org/2000/svg" width="99.978" height="65.303" viewBox="0 0 99.978 65.303">
  <path id="Path_30" data-name="Path 30" d="M49.989,61.871c-22.812,0-41.4-13.132-41.4-29.22s18.587-29.22,41.4-29.22,41.4,13.132,41.4,29.22-18.587,29.22-41.4,29.22M49.989,0C22.336,0,0,14.521,0,32.651S22.336,65.3,49.989,65.3,99.978,50.624,99.978,32.651,77.641,0,49.989,0" fill="#bfbebe"/>
  <path id="Path_31" data-name="Path 31" d="M163.519,91.593h-5.475c-1.726,0-2.658-.774-2.658-2.182v-12.5c0-.774.317-1.091,1.091-1.091h7.042a8.12,8.12,0,0,1,8.113,7.974,7.713,7.713,0,0,1-7.617,7.816,4.311,4.311,0,0,1-.5-.02m-8.113-31.858c0-1.408.932-2.182,2.658-2.182h3.59a6.737,6.737,0,0,1,7.022,6.427v.3a6.964,6.964,0,0,1-7.022,6.864H156.5c-.774,0-1.091-.317-1.091-1.091Zm22.019,13.906c-1.091-.476-1.091-.635,0-1.25a9.209,9.209,0,0,0,4.364-8.113c0-6.09-8.113-12.18-21.087-12.18a34.348,34.348,0,0,0-20.769,6.864c-1.091.932-.932,1.408-.615,1.726l1.885,2.182c.615.635.932.476,1.25.159,1.408-1.091,1.567-.476,1.567.774V85.364c0,1.25-.159,1.884-1.567.774-.317-.317-.615-.476-1.25.159l-2.023,2.341c-.317.476-.615.932.635,1.726a38.516,38.516,0,0,0,21.245,6.725c14.521,0,23.586-6.09,23.586-14.223.119-5.475-4.4-8.133-7.221-9.224" transform="translate(-111.348 -41.763)" fill="#bfbebe"/>
</svg>
