<svg id="Layer_1" data-name="Layer 1" xmlns="http://www.w3.org/2000/svg" viewBox="0 0 196.22 114.18"><defs><style>.cls-1{fill:#bfbebe;}</style></defs><title>Artboard 2</title><path class="cls-1" d="M.6,29.38H14.14L27.43,67.94,40.72,29.38H54.26L35.17,84.8H19.65Z"/><path class="cls-1" d="M53.33,84.8V29.38H73.55c9,0,16.4,3.11,21.53,8.12A26.89,26.89,0,0,1,103,57,28.82,28.82,0,0,1,99.88,70.3a25.42,25.42,0,0,1-9.59,10.34A31.33,31.33,0,0,1,74,84.8ZM66.19,41.49V72.73h5.39c6.73,0,11.39-2.27,14.42-5.34a14.94,14.94,0,0,0,4.29-10.34,14.34,14.34,0,0,0-5.13-10.68A21.28,21.28,0,0,0,71,41.49Z"/><path class="cls-1" d="M138.7,74.92H116l-3.4,9.88H99l19-55.42h18.76L155.94,84.8H142.11ZM120.19,62.85h14.3L127.34,42Z"/><path class="cls-1" d="M154.66,84.8V29.38H171.1a42.85,42.85,0,0,1,10.1,1.05,17.81,17.81,0,0,1,8.37,4.33,12.83,12.83,0,0,1,3.49,9.38,13.2,13.2,0,0,1-1.85,7A15.31,15.31,0,0,1,187,55.62c5.76,2.35,8.58,6.43,8.58,13,0,5-1.55,8.45-4.2,10.8s-6.4,3.75-10.73,4.46a90.12,90.12,0,0,1-14.21.88Zm12.87-46.3V51.37c4.88,0,8.2,0,10.39-.84s3-2.27,3-5.25c0-3.16-1-4.84-3.12-5.77s-5.42-1-10.09-1Zm0,23.26V75.68c5.34,0,9.38-.13,12.07-1.05a5.38,5.38,0,0,0,4.08-5.72c0-3.07-1.26-4.88-3.74-5.89s-6.1-1.26-10.68-1.26Z"/><rect class="cls-1" x="54.7" y="96.74" width="95.77" height="7.89"/><rect class="cls-1" x="54.7" y="9.55" width="95.77" height="7.89"/></svg>